<svg width="344" height="62" viewBox="0 0 344 62" fill="none" xmlns="http://www.w3.org/2000/svg">
<mask id="mask0_4_19" style="mask-type:luminance" maskUnits="userSpaceOnUse" x="102" y="27" width="19" height="27">
<path d="M120.589 27.589L119.446 29.1942H114C109.898 29.9968 107.813 33.2071 107.611 38.7249V45.9482L102.568 53.0712V37.2201C102.77 31.7023 104.922 28.4919 108.956 27.6893L120.589 27.589Z" fill="white"/>
</mask>
<g mask="url(#mask0_4_19)">
<path d="M94.297 43.6408L113.865 66.1133L128.86 37.0194L109.225 14.6472L94.297 43.6408Z" fill="url(#paint0_linear_4_19)"/>
</g>
<mask id="mask1_4_19" style="mask-type:luminance" maskUnits="userSpaceOnUse" x="102" y="0" width="19" height="26">
<path d="M120.455 25.5825L115.748 18.8608H110.167C106.065 18.0583 103.98 14.8479 103.778 9.3301V1.90615L102.434 0V15.9515C102.635 21.4693 104.787 24.6796 108.822 25.4822L120.455 25.5825Z" fill="white"/>
</mask>
<g mask="url(#mask1_4_19)">
<path d="M103.98 -7.52429L97.6592 23.3754L118.976 33.0065L125.297 2.2071L103.98 -7.52429Z" fill="url(#paint1_linear_4_19)"/>
</g>
<mask id="mask2_4_19" style="mask-type:luminance" maskUnits="userSpaceOnUse" x="83" y="8" width="19" height="27">
<path d="M83 34.411L84.1431 32.8058H89.5899C93.6918 32.0032 95.7764 28.7929 95.9781 23.2751V16.0518L101.021 8.9288V24.8803C100.82 30.3981 98.6679 33.6084 94.6332 34.411H83Z" fill="white"/>
</mask>
<g mask="url(#mask2_4_19)">
<path d="M109.561 22.5728L92.7504 -4.61487L74.5273 20.6667L91.3383 47.7541L109.561 22.5728Z" fill="url(#paint2_linear_4_19)"/>
</g>
<mask id="mask3_4_19" style="mask-type:luminance" maskUnits="userSpaceOnUse" x="83" y="36" width="19" height="26">
<path d="M83.1344 36.4175L87.8415 43.1392H93.4227C97.5246 43.9418 99.6092 47.1521 99.8109 52.6699V60.0939L101.156 62V46.0486C100.954 40.5308 98.8022 37.3204 94.7676 36.5178L83.1344 36.4175Z" fill="white"/>
</mask>
<g mask="url(#mask3_4_19)">
<path d="M84.6811 28.8932L78.3602 59.7929L99.6093 69.5243L105.93 38.6246L84.6811 28.8932Z" fill="url(#paint3_linear_4_19)"/>
</g>
<path d="M136.583 27.0162V49.89H131.763V27.0162H125V22.1003H143.347V27.0162H136.583Z" fill="#231F20"/>
<path d="M155.863 49.89L153.608 41.9644C152.831 39.2557 152.364 38.4531 150.032 38.4531H148.322V49.9903H143.658V22.1003H152.442C156.096 22.1003 159.75 23.9061 159.75 29.5243C159.75 33.3366 157.573 35.644 154.774 36.2459C156.718 36.7476 157.495 38.0518 158.195 40.3592L160.994 49.89H155.863ZM150.499 26.3139H148.244V34.3398H150.421C152.598 34.3398 154.93 33.4369 154.93 30.1262C154.93 26.9158 152.831 26.3139 150.499 26.3139Z" fill="#231F20"/>
<path d="M166.28 26.4142V34.0388H174.909V38.2524H166.28V49.9903H161.538V22.1003H175.298V26.3139H166.28V26.4142Z" fill="#231F20"/>
<path d="M181.75 50.3916C179.807 50.3916 177.708 50.0906 175.92 49.288L176.075 44.9741C177.63 45.6764 179.107 46.0777 180.817 46.0777C183.305 46.0777 186.181 44.6731 186.181 41.0615C186.181 37.4498 183.538 36.1456 181.051 36.1456C179.651 36.1456 178.174 36.4466 176.464 37.0485L176.697 22H189.835V26.1133H180.817L180.662 33.0356C181.439 32.7346 182.294 32.6343 183.072 32.6343C187.114 32.6343 190.846 34.7411 190.846 40.7605C190.846 47.4822 186.181 50.3916 181.75 50.3916Z" fill="#231F20"/>
<path d="M199.263 31C199.263 32.2039 199.263 33.1068 199.341 33.6084C199.341 34.0097 199.419 34.2104 199.73 34.3107C199.885 34.3107 200.041 34.3107 200.119 34.3107C200.196 34.3107 200.196 34.3107 200.196 34.411C200.196 34.5113 200.119 34.5113 200.041 34.5113C199.497 34.5113 198.952 34.5113 198.875 34.5113C198.797 34.5113 198.253 34.5113 197.942 34.5113C197.864 34.5113 197.786 34.5113 197.786 34.411C197.786 34.411 197.786 34.3107 197.864 34.3107C197.942 34.3107 198.097 34.3107 198.175 34.3107C198.33 34.3107 198.408 34.0097 198.486 33.6084C198.564 33.1068 198.564 32.1036 198.564 31V25.7832H197.164C196.542 25.7832 196.387 25.8835 196.231 26.1845C196.154 26.3851 196.076 26.4854 196.076 26.5858C196.076 26.6861 195.998 26.6861 195.998 26.6861C195.998 26.6861 195.921 26.6861 195.921 26.5858C195.921 26.4854 196.076 25.3819 196.154 25.2816C196.154 25.1812 196.231 25.0809 196.231 25.0809C196.309 25.0809 196.387 25.1812 196.62 25.1812C196.931 25.1812 197.242 25.2816 197.398 25.2816H200.974C201.285 25.2816 201.518 25.2815 201.673 25.1812C201.829 25.1812 201.907 25.0809 201.907 25.0809C201.984 25.0809 201.984 25.1812 201.984 25.1812C201.984 25.5825 201.984 26.3851 201.984 26.4854C201.984 26.5858 201.984 26.6861 201.907 26.6861C201.829 26.6861 201.829 26.6861 201.829 26.4854V26.3851C201.829 25.9838 201.596 25.7832 200.663 25.6828H199.497V31H199.263Z" fill="#231F20"/>
<path d="M203.306 28.7929C203.306 26.8867 203.306 26.5858 203.306 26.1845C203.306 25.7832 203.228 25.5825 202.917 25.4822C202.839 25.4822 202.684 25.4822 202.606 25.4822C202.606 25.4822 202.528 25.4822 202.528 25.3819C202.528 25.2816 202.606 25.2816 202.684 25.2816C203.073 25.2816 203.695 25.2816 203.772 25.2816C203.85 25.2816 204.627 25.2816 204.861 25.2816C205.483 25.2816 206.104 25.3819 206.571 25.7832C206.804 25.9838 207.193 26.5858 207.193 27.4887C207.193 28.3916 206.882 29.2945 206.027 30.2977C206.804 31.6019 207.426 32.7055 207.97 33.4078C208.514 34.11 208.903 34.2104 209.136 34.3107C209.292 34.3107 209.447 34.3107 209.525 34.3107C209.603 34.3107 209.603 34.3107 209.603 34.411C209.603 34.5113 209.525 34.5113 209.37 34.5113H208.67C208.126 34.5113 207.892 34.411 207.659 34.3107C207.271 34.0097 206.96 33.4078 206.415 32.5049C206.027 31.8026 205.56 31 205.405 30.699C205.405 30.699 205.327 30.5987 205.249 30.5987H204.083C204.005 30.5987 204.006 30.5987 204.006 30.699V31C204.006 32.2039 204.005 33.1068 204.083 33.6084C204.083 34.0097 204.161 34.2104 204.472 34.3107C204.627 34.3107 204.783 34.3107 204.861 34.3107C204.938 34.3107 204.938 34.3107 204.938 34.411C204.938 34.5113 204.861 34.5113 204.783 34.5113C204.239 34.5113 203.695 34.5113 203.617 34.5113C203.617 34.5113 202.995 34.5113 202.762 34.5113C202.684 34.5113 202.606 34.5113 202.606 34.411C202.606 34.411 202.606 34.3107 202.684 34.3107C202.762 34.3107 202.917 34.3107 202.995 34.3107C203.15 34.3107 203.228 34.0097 203.306 33.6084C203.384 33.1068 203.384 32.1036 203.384 31V28.7929H203.306ZM204.083 29.8964C204.083 29.9968 204.083 29.9968 204.161 29.9968C204.316 30.0971 204.705 30.1974 205.172 30.1974C205.405 30.1974 205.638 30.1974 205.871 29.9968C206.182 29.6958 206.415 28.9935 206.415 28.0906C206.415 26.5858 205.794 25.6828 204.783 25.6828C204.472 25.6828 204.239 25.6828 204.161 25.7832C204.083 25.7832 204.083 25.8835 204.083 25.8835V29.8964Z" fill="#231F20"/>
<path d="M210.847 31C210.847 32.2039 210.847 33.1068 210.924 33.6084C210.924 34.0097 211.002 34.2103 211.313 34.3107C211.469 34.3107 211.624 34.3107 211.702 34.3107C211.78 34.3107 211.78 34.3107 211.78 34.411C211.78 34.5113 211.702 34.5113 211.624 34.5113C211.08 34.5113 210.536 34.5113 210.458 34.5113C210.38 34.5113 209.836 34.5113 209.525 34.5113C209.447 34.5113 209.37 34.5113 209.37 34.411C209.37 34.411 209.37 34.3107 209.447 34.3107C209.525 34.3107 209.681 34.3107 209.758 34.3107C209.914 34.3107 209.991 34.0097 210.069 33.6084C210.147 33.1068 210.147 32.1035 210.147 31V28.8932C210.147 26.987 210.147 26.6861 210.147 26.2848C210.147 25.8835 210.069 25.6828 209.836 25.5825C209.758 25.5825 209.603 25.5825 209.525 25.5825C209.525 25.5825 209.447 25.5825 209.447 25.4822C209.447 25.3819 209.525 25.3819 209.603 25.3819C209.914 25.3819 210.536 25.3819 210.536 25.3819C210.613 25.3819 211.158 25.3819 211.469 25.3819C211.546 25.3819 211.624 25.3819 211.624 25.4822C211.624 25.4822 211.624 25.5825 211.546 25.5825C211.469 25.5825 211.391 25.5825 211.313 25.5825C211.08 25.6828 211.002 25.8835 211.002 26.2848C211.002 26.6861 211.002 26.987 211.002 28.8932V31H210.847Z" fill="#231F20"/>
<path d="M213.723 28.7929C213.723 26.8867 213.723 26.5858 213.723 26.1845C213.723 25.7832 213.645 25.5825 213.334 25.4822C213.257 25.4822 213.101 25.4822 213.023 25.4822C213.023 25.4822 212.946 25.4822 212.946 25.3819C212.946 25.2816 213.023 25.2816 213.101 25.2816C213.49 25.2816 214.112 25.2816 214.189 25.2816C214.423 25.2816 214.811 25.2816 215.2 25.2816C216.755 25.2816 217.066 26.4854 217.066 27.0874C217.066 28.0906 216.599 28.6926 216.211 29.2945C216.91 29.5955 217.843 30.3981 217.843 31.9029C217.843 33.2071 217.066 34.6117 215.433 34.6117C215.356 34.6117 215.045 34.6117 214.734 34.6117C214.423 34.6117 214.189 34.6117 214.189 34.6117C214.189 34.6117 214.034 34.6117 213.801 34.6117C213.645 34.6117 213.412 34.6117 213.257 34.6117C213.179 34.6117 213.101 34.6117 213.101 34.5113C213.101 34.5113 213.101 34.411 213.179 34.411C213.257 34.411 213.412 34.411 213.49 34.411C213.645 34.411 213.723 34.11 213.801 33.7087C213.878 33.2071 213.878 32.2039 213.878 31.1003V28.7929H213.723ZM214.5 29.0939C214.5 29.1942 214.5 29.1942 214.578 29.1942C214.656 29.1942 214.811 29.1942 215.122 29.1942C215.666 29.1942 215.822 29.1942 215.977 28.8932C216.211 28.5922 216.288 28.1909 216.288 27.6893C216.288 26.6861 215.977 25.5825 215.045 25.5825C214.967 25.5825 214.734 25.5825 214.578 25.6828C214.5 25.6828 214.5 25.7832 214.5 25.7832V29.0939ZM214.5 30.3981C214.5 31.301 214.5 32.8058 214.5 33.0065C214.5 33.6084 214.5 33.8091 214.811 34.0097C215.045 34.2104 215.511 34.2104 215.667 34.2104C216.211 34.2104 216.988 33.8091 216.988 32.5049C216.988 31.8026 216.833 30.699 216.055 30.0971C215.744 29.7961 215.511 29.7961 215.278 29.6958C215.122 29.6958 214.656 29.6958 214.578 29.6958C214.5 29.6958 214.5 29.6958 214.5 29.7961V30.3981Z" fill="#231F20"/>
<path d="M219.165 28.7929C219.165 26.8867 219.165 26.5858 219.165 26.1845C219.165 25.7832 219.087 25.5825 218.776 25.4822C218.698 25.4822 218.543 25.4822 218.465 25.4822C218.465 25.4822 218.387 25.4822 218.387 25.3819C218.387 25.2816 218.465 25.2816 218.543 25.2816C218.932 25.2816 219.554 25.2816 219.631 25.2816C219.709 25.2816 220.253 25.2816 220.564 25.2816C220.642 25.2816 220.72 25.2816 220.72 25.3819C220.72 25.3819 220.72 25.4822 220.642 25.4822C220.564 25.4822 220.486 25.4822 220.409 25.4822C220.175 25.4822 220.098 25.7832 220.02 26.1845C220.02 26.5858 220.02 26.8867 220.02 28.7929V30.4984C220.02 32.3042 220.331 33.0065 220.72 33.5081C221.186 34.11 221.575 34.2104 222.119 34.2104C222.663 34.2104 223.285 33.8091 223.596 33.3074C224.062 32.6052 224.14 31.6019 224.14 30.2977V28.7929C224.14 26.8867 224.14 26.5858 224.14 26.1845C224.14 25.7832 224.062 25.5825 223.751 25.4822C223.674 25.4822 223.518 25.4822 223.441 25.4822C223.441 25.4822 223.363 25.4822 223.363 25.3819C223.363 25.2816 223.441 25.2816 223.518 25.2816C223.907 25.2816 224.451 25.2816 224.529 25.2816C224.607 25.2816 225.073 25.2816 225.306 25.2816C225.384 25.2816 225.462 25.2816 225.462 25.3819C225.462 25.3819 225.462 25.4822 225.384 25.4822C225.306 25.4822 225.229 25.4822 225.151 25.4822C224.918 25.5825 224.84 25.7832 224.762 26.1845C224.762 26.5858 224.762 26.8867 224.762 28.7929V30.0971C224.762 31.4013 224.684 32.9062 223.907 33.7087C223.207 34.5113 222.508 34.6117 221.963 34.6117C221.652 34.6117 220.72 34.6117 220.02 33.7087C219.554 33.1068 219.165 32.3042 219.165 30.4984V28.7929Z" fill="#231F20"/>
<path d="M227.405 32.9061C227.405 33.9094 227.483 34.2103 227.794 34.3107C227.949 34.411 228.183 34.411 228.26 34.411C228.338 34.411 228.338 34.411 228.338 34.5113C228.338 34.6116 228.26 34.6116 228.183 34.6116C227.638 34.6116 227.25 34.6116 227.172 34.6116C227.094 34.6116 226.706 34.6116 226.239 34.6116C226.161 34.6116 226.084 34.6116 226.084 34.5113C226.084 34.5113 226.084 34.411 226.161 34.411C226.239 34.411 226.395 34.411 226.55 34.3107C226.783 34.2103 226.861 33.9094 226.861 32.8058V25.7832C226.861 25.2815 226.861 25.1812 226.939 25.1812C227.017 25.1812 227.172 25.4822 227.25 25.5825C227.405 25.7832 228.805 27.7896 230.282 29.7961C231.215 31.1003 232.225 32.6052 232.536 33.0065L232.458 26.7864C232.458 25.9838 232.381 25.6828 232.07 25.5825C231.914 25.5825 231.681 25.4822 231.603 25.4822C231.525 25.4822 231.525 25.4822 231.525 25.3819C231.525 25.2815 231.603 25.2815 231.681 25.2815C232.07 25.2815 232.536 25.2815 232.692 25.2815C232.769 25.2815 233.08 25.2815 233.469 25.2815C233.547 25.2815 233.624 25.2815 233.624 25.3819C233.624 25.3819 233.624 25.4822 233.547 25.4822C233.469 25.4822 233.469 25.4822 233.314 25.4822C233.003 25.5825 232.925 25.8835 232.925 26.5857V33.7087C232.925 34.5113 232.925 34.6116 232.847 34.6116C232.769 34.6116 232.692 34.5113 232.147 33.809C232.07 33.7087 230.67 31.9029 229.66 30.4984C228.571 28.9935 227.483 27.3883 227.172 26.987L227.405 32.9061Z" fill="#231F20"/>
<path d="M236.967 25.5825C237.045 25.1812 237.123 25.0809 237.2 25.0809C237.278 25.0809 237.278 25.1812 237.434 25.4822C237.589 25.9838 239.066 31 239.61 32.8058C239.921 33.9094 240.232 34.11 240.388 34.2104C240.543 34.3107 240.699 34.3107 240.777 34.3107C240.854 34.3107 240.854 34.3107 240.854 34.411C240.854 34.5113 240.777 34.5113 240.699 34.5113C240.543 34.5113 239.844 34.5113 239.222 34.5113C239.066 34.5113 238.911 34.5113 238.911 34.411C238.911 34.411 238.911 34.3107 238.989 34.3107C239.066 34.3107 239.066 34.2104 239.066 34.0097L238.211 31C238.211 31 238.211 30.8997 238.133 30.8997H236.112C236.034 30.8997 236.034 30.8997 236.034 31L235.49 33.2071C235.412 33.5081 235.335 33.8091 235.335 34.0097C235.335 34.2104 235.568 34.411 235.723 34.411H235.801C235.879 34.411 235.879 34.411 235.879 34.5113C235.879 34.6116 235.801 34.6116 235.723 34.6116C235.49 34.6116 235.102 34.6116 234.946 34.6116C234.868 34.6116 234.324 34.6116 233.858 34.6116C233.702 34.6116 233.702 34.6116 233.702 34.5113C233.702 34.5113 233.702 34.411 233.78 34.411C233.858 34.411 234.013 34.411 234.091 34.411C234.557 34.3107 234.713 33.9094 234.868 33.3074L236.967 25.5825ZM237.978 30.4984C238.056 30.4984 238.056 30.4984 237.978 30.4984L237.123 27.0874C237.045 26.8867 237.045 26.8867 236.967 27.0874L236.112 30.3981C236.112 30.4984 236.112 30.4984 236.112 30.4984H237.978Z" fill="#231F20"/>
<path d="M242.565 31C242.565 32.8058 242.565 33.6084 242.798 33.8091C242.953 34.0097 243.187 34.11 243.964 34.11C244.43 34.11 244.897 34.11 245.13 33.7087C245.285 33.5081 245.363 33.2071 245.363 33.0065C245.363 32.9061 245.363 32.8058 245.441 32.8058C245.519 32.8058 245.519 32.8058 245.519 33.0065C245.519 33.1068 245.441 33.9094 245.363 34.2103C245.285 34.5113 245.285 34.5113 244.741 34.5113C244.042 34.5113 243.575 34.5113 243.187 34.5113C242.798 34.5113 242.487 34.5113 242.254 34.5113C242.254 34.5113 242.02 34.5113 241.865 34.5113C241.709 34.5113 241.476 34.5113 241.321 34.5113C241.243 34.5113 241.165 34.5113 241.165 34.411C241.165 34.411 241.165 34.3107 241.243 34.3107C241.321 34.3107 241.476 34.3107 241.554 34.3107C241.709 34.3107 241.787 34.0097 241.865 33.6084C241.943 33.1068 241.943 32.1035 241.943 31V28.8932C241.943 26.987 241.943 26.6861 241.943 26.2848C241.943 25.8835 241.865 25.6828 241.554 25.5825C241.476 25.5825 241.321 25.5825 241.243 25.5825C241.243 25.5825 241.165 25.5825 241.165 25.4822C241.165 25.3819 241.243 25.3819 241.321 25.3819C241.709 25.3819 242.331 25.3819 242.409 25.3819C242.487 25.3819 243.109 25.3819 243.42 25.3819C243.497 25.3819 243.575 25.3819 243.575 25.4822C243.575 25.4822 243.575 25.5825 243.497 25.5825C243.42 25.5825 243.264 25.5825 243.187 25.5825C242.876 25.6828 242.876 25.8835 242.798 26.2848C242.798 26.6861 242.798 26.987 242.798 28.8932V31H242.565Z" fill="#231F20"/>
<path d="M249.561 28.7929C249.561 26.8867 249.561 26.5858 249.561 26.1845C249.561 25.7832 249.483 25.5825 249.172 25.4822C249.095 25.4822 248.939 25.4822 248.862 25.4822C248.862 25.4822 248.784 25.4822 248.784 25.3819C248.784 25.2816 248.862 25.2816 248.939 25.2816C249.328 25.2816 249.95 25.2816 250.028 25.2816C250.105 25.2816 250.883 25.2816 251.116 25.2816C251.738 25.2816 252.36 25.3819 252.826 25.7832C253.059 25.9838 253.448 26.5858 253.448 27.4887C253.448 28.3916 253.137 29.2945 252.282 30.2977C253.059 31.6019 253.681 32.7055 254.226 33.4078C254.77 34.11 255.158 34.2104 255.392 34.3107C255.547 34.3107 255.703 34.3107 255.78 34.3107C255.858 34.3107 255.858 34.3107 255.858 34.411C255.858 34.5113 255.78 34.5113 255.625 34.5113H254.925C254.381 34.5113 254.148 34.411 253.915 34.3107C253.526 34.0097 253.137 33.4078 252.671 32.5049C252.282 31.8026 251.816 31 251.66 30.699C251.66 30.699 251.582 30.5987 251.505 30.5987H250.339C250.261 30.5987 250.261 30.5987 250.261 30.699V31C250.261 32.2039 250.261 33.1068 250.339 33.6084C250.339 34.0097 250.416 34.2104 250.727 34.3107C250.883 34.3107 251.038 34.3107 251.116 34.3107C251.194 34.3107 251.194 34.3107 251.194 34.411C251.194 34.5113 251.116 34.5113 251.038 34.5113C250.494 34.5113 249.95 34.5113 249.872 34.5113C249.872 34.5113 249.25 34.5113 249.017 34.5113C248.939 34.5113 248.862 34.5113 248.862 34.411C248.862 34.411 248.862 34.3107 248.939 34.3107C249.017 34.3107 249.172 34.3107 249.25 34.3107C249.406 34.3107 249.483 34.0097 249.561 33.6084C249.639 33.1068 249.639 32.1036 249.639 31V28.7929H249.561ZM250.261 29.8964C250.261 29.9968 250.261 29.9968 250.339 29.9968C250.494 30.0971 250.883 30.1974 251.349 30.1974C251.582 30.1974 251.816 30.1974 252.049 29.9968C252.36 29.6958 252.593 28.9935 252.593 28.0906C252.593 26.5858 251.971 25.6828 250.961 25.6828C250.65 25.6828 250.416 25.6828 250.339 25.7832C250.261 25.7832 250.261 25.8835 250.261 25.8835V29.8964Z" fill="#231F20"/>
<path d="M256.247 28.7929C256.247 26.8867 256.247 26.5858 256.247 26.1845C256.247 25.7832 256.169 25.5825 255.858 25.4822C255.78 25.4822 255.625 25.4822 255.547 25.4822C255.547 25.4822 255.469 25.4822 255.469 25.3819C255.469 25.2815 255.547 25.2816 255.625 25.2816C255.858 25.2816 256.091 25.2816 256.325 25.2816H256.713C256.791 25.2816 258.657 25.2816 258.89 25.2816C259.045 25.2816 259.201 25.2815 259.279 25.1812C259.356 25.1812 259.356 25.0809 259.434 25.0809C259.434 25.0809 259.434 25.0809 259.434 25.1812C259.434 25.2815 259.356 25.3819 259.356 25.7832C259.356 25.8835 259.356 26.4854 259.279 26.5858C259.279 26.6861 259.279 26.6861 259.201 26.6861C259.123 26.6861 259.123 26.5858 259.123 26.4854C259.123 26.3851 259.123 26.1845 259.045 26.0841C258.968 25.8835 258.89 25.7832 258.346 25.6828C258.19 25.6828 257.18 25.6828 257.024 25.6828C257.024 25.6828 256.946 25.6828 256.946 25.7832V29.1942C256.946 29.2945 256.946 29.2945 257.024 29.2945C257.18 29.2945 258.346 29.2945 258.501 29.2945C258.734 29.2945 258.89 29.2945 258.968 29.0938C259.045 28.9935 259.045 28.8932 259.123 28.8932C259.123 28.8932 259.201 28.8932 259.201 28.9935C259.201 29.0938 259.123 29.2945 259.123 29.6958C259.123 29.8964 259.123 30.3981 259.123 30.4984C259.123 30.5987 259.123 30.699 259.045 30.699C258.968 30.699 258.968 30.699 258.968 30.5987C258.968 30.4984 258.968 30.3981 258.968 30.1974C258.968 29.9968 258.812 29.7961 258.501 29.7961C258.268 29.7961 257.335 29.6958 257.18 29.6958C257.102 29.6958 257.102 29.6958 257.102 29.7961V30.8997C257.102 31.301 257.102 32.7055 257.102 33.0065C257.102 33.8091 257.257 34.0097 258.19 34.0097C258.424 34.0097 258.89 34.0097 259.123 33.9094C259.356 33.8091 259.512 33.5081 259.59 33.0065C259.59 32.9061 259.59 32.8058 259.667 32.8058C259.745 32.8058 259.745 32.9061 259.745 33.0065C259.745 33.1068 259.667 33.9094 259.59 34.2104C259.512 34.5113 259.434 34.5113 259.045 34.5113C258.346 34.5113 257.802 34.5113 257.413 34.5113C257.024 34.5113 256.791 34.5113 256.636 34.5113C256.636 34.5113 256.48 34.5113 256.247 34.5113C256.091 34.5113 255.858 34.5113 255.703 34.5113C255.625 34.5113 255.547 34.5113 255.547 34.411C255.547 34.411 255.547 34.3107 255.625 34.3107C255.703 34.3107 255.858 34.3107 255.936 34.3107C256.091 34.3107 256.169 34.0097 256.247 33.6084C256.325 33.1068 256.325 32.1036 256.325 31V28.7929H256.247Z" fill="#231F20"/>
<path d="M266.042 31.4013C266.042 30.3981 265.964 30.2977 265.653 30.0971C265.576 30.0971 265.42 30.0971 265.342 30.0971C265.342 30.0971 265.265 30.0971 265.265 29.9968C265.265 29.8964 265.342 29.8964 265.42 29.8964C265.809 29.8964 266.431 29.8964 266.509 29.8964C266.586 29.8964 267.13 29.8964 267.441 29.8964C267.519 29.8964 267.597 29.8964 267.597 29.9968C267.597 29.9968 267.597 30.0971 267.519 30.0971C267.441 30.0971 267.364 30.0971 267.286 30.0971C267.053 30.1974 266.975 30.3981 266.897 30.7993C266.897 31.2006 266.897 31.6019 266.897 32.1036V33.5081C266.897 34.0097 266.897 34.11 266.742 34.2104C266.12 34.6116 265.265 34.712 264.721 34.712C264.021 34.712 262.622 34.6116 261.611 33.4078C261.067 32.8058 260.445 31.5016 260.445 29.8964C260.445 27.9903 261.144 26.5858 262 25.8835C262.855 25.1812 263.788 25.0809 264.487 25.0809C265.109 25.0809 265.731 25.2816 265.964 25.2816C266.198 25.3819 266.509 25.3819 266.742 25.3819C266.82 25.3819 266.82 25.4822 266.82 25.4822C266.82 25.6828 266.742 25.9838 266.742 27.1877C266.742 27.3883 266.742 27.4887 266.664 27.4887C266.586 27.4887 266.586 27.3883 266.586 27.288C266.586 27.0874 266.509 26.7864 266.353 26.4854C266.12 25.9838 265.342 25.4822 264.099 25.4822C263.477 25.4822 262.777 25.5825 262.077 26.2848C261.533 26.8867 261.144 27.9903 261.144 29.3948C261.144 31.1003 261.844 32.4045 262.155 32.8058C262.933 33.7087 263.788 34.11 264.643 34.11C264.954 34.11 265.498 34.0097 265.731 33.8091C265.887 33.7087 265.887 33.6084 265.887 33.4078V31.4013H266.042Z" fill="#231F20"/>
<path d="M270.007 31C270.007 32.2039 270.007 33.1068 270.085 33.6084C270.085 34.0097 270.162 34.2103 270.473 34.3107C270.629 34.3107 270.784 34.3107 270.94 34.3107C271.017 34.3107 271.017 34.3107 271.017 34.411C271.017 34.5113 270.94 34.5113 270.862 34.5113C270.318 34.5113 269.774 34.5113 269.696 34.5113C269.618 34.5113 269.074 34.5113 268.763 34.5113C268.685 34.5113 268.607 34.5113 268.607 34.411C268.607 34.411 268.608 34.3107 268.685 34.3107C268.763 34.3107 268.918 34.3107 268.996 34.3107C269.152 34.3107 269.229 34.0097 269.307 33.6084C269.385 33.1068 269.385 32.1035 269.385 31V28.8932C269.385 26.987 269.385 26.6861 269.385 26.2848C269.385 25.8835 269.307 25.6828 269.074 25.5825C268.996 25.5825 268.841 25.5825 268.763 25.5825C268.763 25.5825 268.685 25.5825 268.685 25.4822C268.685 25.3819 268.763 25.3819 268.841 25.3819C269.152 25.3819 269.774 25.3819 269.774 25.3819C269.851 25.3819 270.396 25.3819 270.706 25.3819C270.784 25.3819 270.862 25.3819 270.862 25.4822C270.862 25.4822 270.862 25.5825 270.784 25.5825C270.706 25.5825 270.629 25.5825 270.551 25.5825C270.318 25.6828 270.24 25.8835 270.162 26.2848C270.162 26.6861 270.162 26.987 270.162 28.8932V31H270.007Z" fill="#231F20"/>
<path d="M275.293 25.0809C277.392 25.0809 279.025 26.7864 279.025 29.6958C279.025 32.4045 277.548 34.712 275.215 34.712C272.65 34.712 271.562 32.1036 271.562 29.8964C271.562 27.89 272.728 25.0809 275.293 25.0809ZM275.526 34.2104C276.382 34.2104 278.17 33.6084 278.17 29.9968C278.17 27.0874 276.77 25.4822 275.293 25.4822C273.738 25.4822 272.495 26.7864 272.495 29.4951C272.495 32.4045 273.816 34.2104 275.526 34.2104Z" fill="#231F20"/>
<path d="M280.813 32.9061C280.813 33.9094 280.89 34.2103 281.201 34.3107C281.357 34.411 281.59 34.411 281.668 34.411C281.746 34.411 281.746 34.411 281.746 34.5113C281.746 34.6116 281.668 34.6116 281.59 34.6116C281.046 34.6116 280.657 34.6116 280.579 34.6116C280.502 34.6116 280.113 34.6116 279.647 34.6116C279.569 34.6116 279.491 34.6116 279.491 34.5113C279.491 34.5113 279.491 34.411 279.569 34.411C279.647 34.411 279.802 34.411 279.958 34.3107C280.191 34.2103 280.269 33.9094 280.269 32.8058V25.7832C280.269 25.2815 280.269 25.1812 280.346 25.1812C280.424 25.1812 280.579 25.4822 280.657 25.5825C280.813 25.7832 282.212 27.7896 283.689 29.7961C284.622 31.1003 285.633 32.6052 285.944 33.0065L285.866 26.7864C285.866 25.9838 285.788 25.6828 285.477 25.5825C285.322 25.5825 285.088 25.4822 285.011 25.4822C284.933 25.4822 284.933 25.4822 284.933 25.3819C284.933 25.2815 285.011 25.2815 285.088 25.2815C285.477 25.2815 285.944 25.2815 286.099 25.2815C286.177 25.2815 286.488 25.2815 286.876 25.2815C286.954 25.2815 287.032 25.2815 287.032 25.3819C287.032 25.3819 287.032 25.4822 286.954 25.4822C286.876 25.4822 286.876 25.4822 286.721 25.4822C286.41 25.5825 286.332 25.8835 286.332 26.5857V33.7087C286.332 34.5113 286.332 34.6116 286.255 34.6116C286.177 34.6116 286.099 34.5113 285.555 33.809C285.477 33.7087 284.078 31.9029 283.067 30.4984C281.979 28.9935 280.89 27.3883 280.579 26.987L280.813 32.9061Z" fill="#231F20"/>
<path d="M290.453 25.5825C290.53 25.1812 290.608 25.0809 290.686 25.0809C290.763 25.0809 290.763 25.1812 290.919 25.4822C291.074 25.9838 292.552 31 293.096 32.8058C293.407 33.9094 293.718 34.11 293.873 34.2104C294.029 34.3107 294.184 34.3107 294.262 34.3107C294.34 34.3107 294.34 34.3107 294.34 34.411C294.34 34.5113 294.262 34.5113 294.184 34.5113C294.029 34.5113 293.329 34.5113 292.707 34.5113C292.552 34.5113 292.396 34.5113 292.396 34.411C292.396 34.411 292.396 34.3107 292.474 34.3107C292.552 34.3107 292.552 34.2104 292.552 34.0097L291.696 31C291.696 31 291.696 30.8997 291.619 30.8997H289.597C289.52 30.8997 289.52 30.8997 289.52 31L288.975 33.2071C288.898 33.5081 288.82 33.8091 288.82 34.0097C288.82 34.2104 289.053 34.411 289.209 34.411H289.286C289.364 34.411 289.364 34.411 289.364 34.5113C289.364 34.6116 289.286 34.6116 289.209 34.6116C288.975 34.6116 288.587 34.6116 288.431 34.6116C288.354 34.6116 287.809 34.6116 287.343 34.6116C287.187 34.6116 287.187 34.6116 287.187 34.5113C287.187 34.5113 287.187 34.411 287.265 34.411C287.343 34.411 287.498 34.411 287.576 34.411C288.043 34.3107 288.198 33.9094 288.354 33.3074L290.453 25.5825ZM291.463 30.4984L290.608 27.0874C290.53 26.8867 290.53 26.8867 290.453 27.0874L289.597 30.3981C289.597 30.4984 289.597 30.4984 289.597 30.4984H291.463Z" fill="#231F20"/>
<path d="M296.05 31C296.05 32.8058 296.05 33.6084 296.283 33.8091C296.438 34.0097 296.672 34.11 297.449 34.11C297.916 34.11 298.382 34.11 298.615 33.7087C298.771 33.5081 298.848 33.2071 298.848 33.0065C298.848 32.9061 298.848 32.8058 298.926 32.8058C299.004 32.8058 299.004 32.8058 299.004 33.0065C299.004 33.1068 298.926 33.9094 298.848 34.2103C298.771 34.5113 298.771 34.5113 298.227 34.5113C297.527 34.5113 297.06 34.5113 296.672 34.5113C296.283 34.5113 295.972 34.5113 295.739 34.5113C295.739 34.5113 295.506 34.5113 295.35 34.5113C295.195 34.5113 294.961 34.5113 294.806 34.5113C294.728 34.5113 294.65 34.5113 294.65 34.411C294.65 34.411 294.65 34.3107 294.728 34.3107C294.806 34.3107 294.961 34.3107 295.039 34.3107C295.195 34.3107 295.272 34.0097 295.35 33.6084C295.428 33.1068 295.428 32.1035 295.428 31V28.8932C295.428 26.987 295.428 26.6861 295.428 26.2848C295.428 25.8835 295.35 25.6828 295.039 25.5825C294.961 25.5825 294.806 25.5825 294.728 25.5825C294.728 25.5825 294.65 25.5825 294.65 25.4822C294.65 25.3819 294.728 25.3819 294.806 25.3819C295.195 25.3819 295.817 25.3819 295.894 25.3819C295.972 25.3819 296.672 25.3819 296.905 25.3819C296.983 25.3819 297.06 25.3819 297.06 25.4822C297.06 25.4822 297.06 25.5825 296.983 25.5825C296.905 25.5825 296.749 25.5825 296.672 25.5825C296.361 25.6828 296.283 25.8835 296.283 26.2848C296.283 26.6861 296.283 26.987 296.283 28.8932V31H296.05Z" fill="#231F20"/>
<path d="M302.969 28.7929C302.969 26.8867 302.969 26.5857 302.969 26.1844C302.969 25.7832 302.891 25.5825 302.58 25.4822C302.502 25.4822 302.347 25.4822 302.269 25.4822C302.269 25.4822 302.191 25.4822 302.191 25.3819C302.191 25.2815 302.269 25.2815 302.347 25.2815C302.58 25.2815 302.813 25.2815 303.046 25.2815H303.435C303.591 25.2815 305.534 25.2815 305.767 25.2815C305.923 25.2815 306.078 25.2815 306.156 25.2815C306.234 25.2815 306.234 25.1812 306.311 25.1812C306.311 25.1812 306.389 25.1812 306.389 25.2815C306.389 25.3819 306.311 25.4822 306.311 25.8835C306.311 25.9838 306.311 26.5857 306.234 26.6861C306.234 26.7864 306.234 26.7864 306.156 26.7864C306.078 26.7864 306.078 26.6861 306.078 26.6861C306.078 26.5857 306.078 26.3851 306 26.1844C305.923 25.9838 305.69 25.7832 305.379 25.7832H303.902C303.824 25.7832 303.824 25.7832 303.824 25.8835V29.2945C303.824 29.3948 303.824 29.3948 303.902 29.3948H305.145C305.301 29.3948 305.456 29.3948 305.534 29.3948C305.767 29.3948 305.923 29.2945 306 29.1942C306.078 29.0938 306.078 29.0938 306.078 29.0938C306.078 29.0938 306.156 29.0938 306.156 29.1942C306.156 29.2945 306.078 29.4951 306.078 29.8964C306.078 30.0971 306.078 30.5987 306.078 30.699C306.078 30.7993 306.078 30.8997 306 30.8997C305.923 30.8997 305.923 30.8997 305.923 30.7993C305.923 30.699 305.923 30.4984 305.845 30.398C305.767 30.1974 305.612 29.9967 305.379 29.9967C305.145 29.9967 304.135 29.9967 303.979 29.9967C303.901 29.9967 303.902 29.9967 303.902 30.0971V31.1003C303.902 32.3042 303.901 33.2071 303.979 33.7087C303.979 34.11 304.057 34.3107 304.368 34.411C304.523 34.411 304.679 34.411 304.757 34.411C304.834 34.411 304.834 34.411 304.834 34.5113C304.834 34.6116 304.757 34.6116 304.679 34.6116C304.135 34.6116 303.591 34.6116 303.513 34.6116C303.435 34.6116 302.891 34.6116 302.58 34.6116C302.502 34.6116 302.424 34.6116 302.424 34.5113C302.424 34.5113 302.424 34.411 302.502 34.411C302.58 34.411 302.735 34.411 302.813 34.411C302.969 34.411 303.046 34.11 303.124 33.7087C303.202 33.2071 303.202 32.2039 303.202 31.1003V28.7929H302.969Z" fill="#231F20"/>
<path d="M308.099 28.7929C308.099 26.8867 308.099 26.5858 308.099 26.1845C308.099 25.7832 308.022 25.5825 307.711 25.4822C307.633 25.4822 307.478 25.4822 307.4 25.4822C307.322 25.4822 307.322 25.4822 307.322 25.3819C307.322 25.2815 307.4 25.2816 307.478 25.2816C307.711 25.2816 307.944 25.2816 308.177 25.2816H308.566C308.644 25.2816 310.509 25.2816 310.743 25.2816C310.898 25.2816 311.054 25.2815 311.131 25.1812C311.209 25.1812 311.209 25.0809 311.287 25.0809C311.287 25.0809 311.287 25.0809 311.287 25.1812C311.287 25.2815 311.209 25.3819 311.209 25.7832C311.209 25.8835 311.209 26.4854 311.131 26.5858C311.131 26.6861 311.131 26.6861 311.054 26.6861C310.976 26.6861 310.976 26.5858 310.976 26.4854C310.976 26.3851 310.976 26.1845 310.898 26.0841C310.82 25.8835 310.743 25.7832 310.198 25.6828C310.043 25.6828 309.032 25.6828 308.877 25.6828C308.877 25.6828 308.799 25.6828 308.799 25.7832V29.1942C308.799 29.2945 308.799 29.2945 308.877 29.2945C309.032 29.2945 310.198 29.2945 310.354 29.2945C310.587 29.2945 310.743 29.2945 310.82 29.0938C310.898 28.9935 310.898 28.8932 310.976 28.8932C310.976 28.8932 311.054 28.8932 311.054 28.9935C311.054 29.0938 310.976 29.2945 310.976 29.6958C310.976 29.8964 310.976 30.3981 310.976 30.4984C310.976 30.5987 310.976 30.699 310.898 30.699C310.82 30.699 310.82 30.699 310.82 30.5987C310.82 30.4984 310.82 30.3981 310.82 30.1974C310.743 29.9968 310.665 29.7961 310.354 29.7961C310.121 29.7961 309.188 29.6958 309.032 29.6958C308.955 29.6958 308.955 29.6958 308.955 29.7961V30.8997C308.955 31.301 308.955 32.7055 308.955 33.0065C308.955 33.8091 309.11 34.0097 310.043 34.0097C310.276 34.0097 310.743 34.0097 310.976 33.9094C311.209 33.8091 311.365 33.5081 311.365 33.0065C311.365 32.9061 311.442 32.8058 311.442 32.8058C311.52 32.8058 311.52 32.9061 311.52 33.0065C311.52 33.1068 311.442 33.9094 311.365 34.2104C311.287 34.5113 311.209 34.5113 310.82 34.5113C310.121 34.5113 309.577 34.5113 309.188 34.5113C308.799 34.5113 308.566 34.5113 308.488 34.5113C308.488 34.5113 308.333 34.5113 308.099 34.5113C307.944 34.5113 307.711 34.5113 307.555 34.5113C307.478 34.5113 307.4 34.5113 307.4 34.411C307.4 34.411 307.4 34.3107 307.478 34.3107C307.555 34.3107 307.711 34.3107 307.789 34.3107C307.944 34.3107 308.022 34.0097 308.099 33.6084C308.177 33.1068 308.177 32.1036 308.177 31V28.7929H308.099Z" fill="#231F20"/>
<path d="M313.464 28.7929C313.464 26.8867 313.464 26.5857 313.464 26.1845C313.464 25.7832 313.386 25.5825 313.075 25.4822C312.997 25.4822 312.842 25.4822 312.764 25.4822C312.764 25.4822 312.686 25.4822 312.686 25.3819C312.686 25.2815 312.764 25.2815 312.842 25.2815C313.308 25.2815 313.852 25.2815 313.93 25.2815C314.008 25.2815 314.63 25.2815 315.174 25.2815C316.107 25.2815 317.817 25.1812 318.983 26.6861C319.45 27.288 319.916 28.2912 319.916 29.7961C319.916 31.301 319.45 32.5048 318.905 33.2071C318.517 33.7087 317.662 34.6116 316.029 34.6116C315.64 34.6116 315.096 34.6116 314.707 34.5113C314.319 34.5113 313.93 34.411 313.93 34.411C313.93 34.411 313.775 34.411 313.541 34.411C313.386 34.411 313.153 34.411 312.997 34.411C312.919 34.411 312.842 34.411 312.842 34.3107C312.842 34.3107 312.842 34.2103 312.919 34.2103C312.997 34.2103 313.153 34.2103 313.23 34.2103C313.386 34.2103 313.464 33.9094 313.541 33.5081C313.619 33.0065 313.619 32.0032 313.619 30.8997V28.7929H313.464ZM314.241 30.1974C314.241 31.5016 314.241 32.6052 314.241 32.8058C314.241 33.1068 314.241 33.6084 314.319 33.7087C314.474 33.9094 314.785 34.2103 315.951 34.2103C316.806 34.2103 317.662 33.809 318.206 33.1068C318.672 32.5048 318.983 31.301 318.983 30.1974C318.983 28.6925 318.439 27.6893 318.05 27.0874C317.195 25.8835 316.107 25.6828 314.941 25.6828C314.785 25.6828 314.396 25.6828 314.319 25.7832C314.241 25.7832 314.241 25.8835 314.241 25.9838C314.241 26.3851 314.241 27.6893 314.241 28.5922V30.1974Z" fill="#231F20"/>
<path d="M321.549 28.7929C321.549 26.8867 321.549 26.5858 321.549 26.1845C321.549 25.7832 321.471 25.5825 321.16 25.4822C321.082 25.4822 320.927 25.4822 320.849 25.4822C320.771 25.4822 320.771 25.4822 320.771 25.3819C320.771 25.2815 320.849 25.2816 320.927 25.2816C321.16 25.2816 321.393 25.2816 321.626 25.2816H322.015C322.093 25.2816 323.958 25.2816 324.192 25.2816C324.347 25.2816 324.503 25.2815 324.58 25.1812C324.658 25.1812 324.658 25.0809 324.736 25.0809C324.736 25.0809 324.736 25.0809 324.736 25.1812C324.736 25.2815 324.658 25.3819 324.658 25.7832C324.658 25.8835 324.658 26.4854 324.58 26.5858C324.58 26.6861 324.58 26.6861 324.503 26.6861C324.425 26.6861 324.425 26.5858 324.425 26.4854C324.425 26.3851 324.425 26.1845 324.347 26.0841C324.269 25.8835 324.192 25.7832 323.648 25.6828C323.492 25.6828 322.481 25.6828 322.326 25.6828C322.248 25.6828 322.248 25.6828 322.248 25.7832V29.1942C322.248 29.2945 322.248 29.2945 322.326 29.2945C322.481 29.2945 323.648 29.2945 323.803 29.2945C324.036 29.2945 324.192 29.2945 324.269 29.0938C324.347 28.9935 324.347 28.8932 324.425 28.8932C324.425 28.8932 324.503 28.8932 324.503 28.9935C324.503 29.0938 324.425 29.2945 324.425 29.6958C324.425 29.8964 324.425 30.3981 324.425 30.4984C324.425 30.5987 324.425 30.699 324.347 30.699C324.269 30.699 324.269 30.699 324.269 30.5987C324.269 30.4984 324.269 30.3981 324.269 30.1974C324.192 29.9968 324.114 29.7961 323.803 29.7961C323.57 29.7961 322.637 29.6958 322.481 29.6958C322.404 29.6958 322.404 29.6958 322.404 29.7961V30.8997C322.404 31.301 322.404 32.7055 322.404 33.0065C322.404 33.8091 322.559 34.0097 323.492 34.0097C323.725 34.0097 324.192 34.0097 324.425 33.9094C324.658 33.8091 324.814 33.5081 324.814 33.0065C324.814 32.9061 324.891 32.8058 324.891 32.8058C324.969 32.8058 324.969 32.9061 324.969 33.0065C324.969 33.1068 324.891 33.9094 324.814 34.2104C324.736 34.5113 324.658 34.5113 324.269 34.5113C323.57 34.5113 323.026 34.5113 322.637 34.5113C322.248 34.5113 322.015 34.5113 321.86 34.5113C321.86 34.5113 321.704 34.5113 321.471 34.5113C321.315 34.5113 321.082 34.5113 320.927 34.5113C320.849 34.5113 320.771 34.5113 320.771 34.411C320.771 34.411 320.771 34.3107 320.849 34.3107C320.927 34.3107 321.082 34.3107 321.16 34.3107C321.315 34.3107 321.393 34.0097 321.471 33.6084C321.549 33.1068 321.549 32.1036 321.549 31V28.7929Z" fill="#231F20"/>
<path d="M326.835 28.7929C326.835 26.8867 326.835 26.5858 326.835 26.1845C326.835 25.7832 326.757 25.5825 326.446 25.4822C326.368 25.4822 326.213 25.4822 326.135 25.4822C326.135 25.4822 326.057 25.4822 326.057 25.3819C326.057 25.2816 326.135 25.2816 326.213 25.2816C326.602 25.2816 327.224 25.2816 327.301 25.2816C327.379 25.2816 328.156 25.2816 328.39 25.2816C329.012 25.2816 329.633 25.3819 330.1 25.7832C330.333 25.9838 330.722 26.5858 330.722 27.4887C330.722 28.3916 330.411 29.2945 329.556 30.2977C330.333 31.6019 330.955 32.7055 331.499 33.4078C332.043 34.11 332.432 34.2104 332.665 34.3107C332.821 34.3107 332.976 34.3107 333.054 34.3107C333.132 34.3107 333.132 34.3107 333.132 34.411C333.132 34.5113 333.054 34.5113 332.899 34.5113H332.199C331.655 34.5113 331.422 34.411 331.188 34.3107C330.8 34.0097 330.411 33.4078 329.944 32.5049C329.556 31.8026 329.089 31 328.934 30.699C328.934 30.699 328.856 30.5987 328.778 30.5987H327.612C327.535 30.5987 327.535 30.5987 327.535 30.699V31C327.535 32.2039 327.535 33.1068 327.612 33.6084C327.612 34.0097 327.69 34.2104 328.001 34.3107C328.156 34.3107 328.312 34.3107 328.39 34.3107C328.467 34.3107 328.467 34.3107 328.467 34.411C328.467 34.5113 328.39 34.5113 328.312 34.5113C327.768 34.5113 327.224 34.5113 327.146 34.5113C327.146 34.5113 326.524 34.5113 326.291 34.5113C326.213 34.5113 326.135 34.5113 326.135 34.411C326.135 34.411 326.135 34.3107 326.213 34.3107C326.291 34.3107 326.446 34.3107 326.524 34.3107C326.679 34.3107 326.757 34.0097 326.835 33.6084C326.913 33.1068 326.913 32.1036 326.913 31V28.7929H326.835ZM327.612 29.8964C327.612 29.9968 327.612 29.9968 327.69 29.9968C327.845 30.0971 328.234 30.1974 328.701 30.1974C328.934 30.1974 329.167 30.1974 329.4 29.9968C329.711 29.6958 329.944 28.9935 329.944 28.0906C329.944 26.5858 329.323 25.6828 328.312 25.6828C328.001 25.6828 327.768 25.6828 327.69 25.7832C327.612 25.7832 327.612 25.8835 327.612 25.8835V29.8964Z" fill="#231F20"/>
<path d="M334.92 25.5825C334.998 25.1812 335.075 25.0809 335.153 25.0809C335.231 25.0809 335.231 25.1812 335.386 25.4822C335.542 25.9838 337.019 31 337.563 32.8058C337.874 33.9094 338.185 34.11 338.34 34.2104C338.496 34.3107 338.651 34.3107 338.729 34.3107C338.807 34.3107 338.807 34.3107 338.807 34.411C338.807 34.5113 338.729 34.5113 338.651 34.5113C338.496 34.5113 337.796 34.5113 337.174 34.5113C337.019 34.5113 336.863 34.5113 336.863 34.411C336.863 34.411 336.863 34.3107 336.941 34.3107C337.019 34.3107 337.019 34.2104 337.019 34.0097L336.164 31C336.164 31 336.164 30.8997 336.086 30.8997H334.065C333.987 30.8997 333.987 30.8997 333.987 31L333.443 33.2071C333.365 33.5081 333.287 33.8091 333.287 34.0097C333.287 34.2104 333.521 34.411 333.676 34.411H333.754C333.831 34.411 333.831 34.411 333.831 34.5113C333.831 34.6116 333.754 34.6116 333.676 34.6116C333.443 34.6116 333.054 34.6116 332.899 34.6116C332.743 34.6116 332.277 34.6116 331.81 34.6116C331.655 34.6116 331.655 34.6116 331.655 34.5113C331.655 34.5113 331.655 34.411 331.732 34.411C331.81 34.411 331.966 34.411 332.043 34.411C332.51 34.3107 332.665 33.9094 332.821 33.3074L334.92 25.5825ZM335.93 30.4984L335.075 27.0874C334.998 26.8867 334.998 26.8867 334.92 27.0874L334.065 30.3981C334.065 30.4984 334.065 30.4984 334.065 30.4984H335.93Z" fill="#231F20"/>
<path d="M340.517 31C340.517 32.8058 340.595 33.6084 340.75 33.8091C340.906 34.0097 341.139 34.11 341.916 34.11C342.383 34.11 342.849 34.11 343.083 33.7087C343.238 33.5081 343.316 33.2071 343.316 33.0065C343.316 32.9061 343.316 32.8058 343.394 32.8058C343.471 32.8058 343.471 32.8058 343.471 33.0065C343.471 33.1068 343.393 33.9094 343.316 34.2103C343.238 34.5113 343.238 34.5113 342.694 34.5113C341.994 34.5113 341.528 34.5113 341.139 34.5113C340.75 34.5113 340.439 34.5113 340.206 34.5113C340.128 34.5113 339.973 34.5113 339.817 34.5113C339.662 34.5113 339.429 34.5113 339.273 34.5113C339.196 34.5113 339.118 34.5113 339.118 34.411C339.118 34.411 339.118 34.3107 339.196 34.3107C339.273 34.3107 339.429 34.3107 339.506 34.3107C339.662 34.3107 339.74 34.0097 339.817 33.6084C339.895 33.1068 339.895 32.1035 339.895 31V28.8932C339.895 26.987 339.895 26.6861 339.895 26.2848C339.895 25.8835 339.817 25.6828 339.506 25.5825C339.429 25.5825 339.273 25.5825 339.196 25.5825C339.196 25.5825 339.118 25.5825 339.118 25.4822C339.118 25.3819 339.196 25.3819 339.273 25.3819C339.74 25.3819 340.284 25.3819 340.362 25.3819C340.439 25.3819 341.139 25.3819 341.372 25.3819C341.45 25.3819 341.528 25.3819 341.528 25.4822C341.528 25.4822 341.528 25.5825 341.45 25.5825C341.372 25.5825 341.217 25.5825 341.139 25.5825C340.828 25.6828 340.75 25.8835 340.75 26.2848C340.75 26.6861 340.75 26.987 340.75 28.8932V31H340.517Z" fill="#231F20"/>
<path d="M197.087 44.1424C197.087 42.5372 197.087 42.2362 197.087 41.9353C197.087 41.534 197.009 41.4336 196.776 41.3333C196.698 41.3333 196.542 41.3333 196.465 41.3333C196.465 41.3333 196.387 41.3333 196.387 41.233C196.387 41.1327 196.387 41.1327 196.542 41.1327C196.931 41.1327 197.475 41.1327 197.475 41.1327C197.553 41.1327 198.097 41.1327 198.564 41.1327C199.419 41.1327 200.896 41.0324 201.906 42.3366C202.295 42.8382 202.684 43.7411 202.684 44.945C202.684 46.2492 202.217 47.2524 201.751 47.8544C201.362 48.356 200.663 49.0582 199.186 49.0582C198.797 49.0582 198.408 49.0582 198.019 48.9579C197.631 48.9579 197.398 48.8576 197.32 48.8576C197.32 48.8576 197.164 48.8576 197.009 48.8576C196.853 48.8576 196.62 48.8576 196.542 48.8576C196.465 48.8576 196.387 48.8576 196.387 48.7573C196.387 48.7573 196.387 48.6569 196.465 48.6569C196.542 48.6569 196.62 48.6569 196.698 48.6569C196.853 48.6569 196.853 48.4563 196.931 48.1553C197.009 47.754 197.009 46.9514 197.009 45.9482V44.1424H197.087ZM197.786 45.2459C197.786 46.3495 197.786 47.3527 197.786 47.5534C197.786 47.8544 197.786 48.1553 197.864 48.2556C197.942 48.4563 198.253 48.6569 199.263 48.6569C200.041 48.6569 200.74 48.356 201.207 47.754C201.673 47.2524 201.829 46.2492 201.829 45.2459C201.829 43.9417 201.362 43.0388 201.051 42.6375C200.274 41.6343 199.341 41.4336 198.33 41.4336C198.175 41.4336 197.942 41.4336 197.864 41.534C197.786 41.534 197.786 41.6343 197.786 41.7346V45.2459Z" fill="#231F20"/>
<path d="M205.405 41.3333C205.483 41.0324 205.56 40.932 205.638 40.932C205.716 40.932 205.716 41.0324 205.871 41.3333C206.027 41.7346 207.348 46.0485 207.893 47.6537C208.203 48.5566 208.437 48.7573 208.592 48.7573C208.748 48.7573 208.825 48.8576 208.903 48.8576C208.981 48.8576 208.981 48.8576 208.981 48.9579C208.981 49.0583 208.903 49.0583 208.825 49.0583C208.67 49.0583 208.126 49.0583 207.504 49.0583C207.348 49.0583 207.193 49.0583 207.193 48.9579C207.193 48.9579 207.193 48.9579 207.271 48.8576C207.348 48.8576 207.426 48.7573 207.348 48.5566L206.571 46.1489C206.571 46.1489 206.571 46.0485 206.493 46.0485H204.55C204.55 46.0485 204.472 46.0485 204.472 46.1489L204.006 47.8544C203.928 48.1553 203.85 48.356 203.85 48.5566C203.85 48.7573 204.005 48.8576 204.161 48.8576H204.239C204.316 48.8576 204.316 48.8576 204.316 48.9579C204.316 49.0583 204.239 49.0583 204.161 49.0583C203.928 49.0583 203.539 49.0583 203.384 49.0583C203.306 49.0583 202.917 49.0583 202.528 49.0583C202.451 49.0583 202.373 49.0583 202.373 48.9579C202.373 48.9579 202.373 48.8576 202.451 48.8576C202.528 48.8576 202.606 48.8576 202.684 48.8576C203.073 48.7573 203.228 48.4563 203.384 47.9547L205.405 41.3333ZM206.338 45.6472C206.415 45.6472 206.415 45.6472 206.338 45.6472L205.56 42.7379C205.483 42.5372 205.483 42.5372 205.405 42.7379L204.627 45.5469V45.6472H206.338Z" fill="#231F20"/>
<path d="M212.401 42.4369C213.568 42.6376 215.356 43.6408 215.356 45.7476C215.356 47.3528 214.423 49.1586 212.479 49.1586C212.168 49.1586 211.857 49.1586 211.624 48.9579C211.469 48.8576 211.469 48.7573 211.469 48.657C211.469 48.2557 211.469 47.5534 211.469 47.1521C211.469 47.0518 211.546 46.9515 211.546 46.9515C211.624 46.9515 211.624 47.0518 211.624 47.1521C211.624 48.4563 212.246 48.7573 212.946 48.7573C213.723 48.7573 214.578 48.055 214.578 46.3495C214.578 44.3431 212.868 43.4401 212.168 43.3398C212.013 43.3398 211.935 43.2395 211.935 43.1392L212.168 40.0291C212.168 39.9288 212.246 39.8285 212.324 39.8285H214.578C214.811 39.8285 215.045 39.8285 215.122 39.8285C215.2 39.8285 215.278 39.8285 215.356 39.8285C215.356 39.8285 215.433 39.8285 215.433 39.9288C215.433 40.0291 215.433 40.5308 215.278 41.4337C215.278 41.534 215.278 41.534 215.2 41.534C215.2 41.534 215.122 41.4337 215.122 41.3333C215.122 40.8317 215.045 40.5308 214.267 40.5308H212.479L212.401 42.4369Z" fill="#231F20"/>
<path d="M216.833 42.5372L216.599 43.3398C216.599 43.4401 216.522 43.5405 216.522 43.6408C216.522 43.7411 216.599 43.8414 216.677 43.8414H216.755H216.833C216.833 43.8414 216.833 43.9418 216.755 43.9418C216.599 43.9418 216.444 43.9418 216.366 43.9418C216.288 43.9418 215.977 43.9418 215.744 43.9418C215.667 43.9418 215.667 43.9418 215.667 43.8414C215.667 43.8414 215.667 43.8414 215.744 43.8414C215.744 43.8414 215.822 43.8414 215.9 43.8414C216.133 43.8414 216.211 43.6408 216.288 43.3398L217.455 39.7282C217.455 39.6278 217.532 39.6278 217.61 39.6278C217.61 39.6278 217.688 39.6278 217.765 39.8285C217.843 40.0291 218.621 42.4369 219.009 43.2395C219.165 43.7411 219.32 43.8414 219.398 43.8414C219.476 43.8414 219.554 43.8414 219.631 43.8414H219.709L219.631 43.9418C219.554 43.9418 219.165 43.9418 218.698 43.9418C218.621 43.9418 218.543 43.9418 218.543 43.9418C218.543 43.9418 218.543 43.9418 218.543 43.8414C218.543 43.8414 218.621 43.7411 218.543 43.7411L218.154 42.6375C218.154 42.6375 218.154 42.6375 218.076 42.6375H216.833V42.5372ZM217.843 42.2363C217.921 42.1359 217.921 42.2363 217.843 42.2363L217.455 40.8317C217.455 40.7314 217.377 40.7314 217.377 40.8317L216.988 42.2363H217.843Z" fill="#231F20"/>
<path d="M223.285 43.3398C223.285 41.4337 223.285 41.1327 223.285 40.7314C223.285 40.3301 223.207 40.1295 222.896 40.0291C222.819 40.0291 222.663 40.0291 222.585 40.0291C222.585 40.0291 222.508 40.0291 222.508 39.9288C222.508 39.8285 222.585 39.8285 222.663 39.8285C223.052 39.8285 223.674 39.8285 223.751 39.8285C223.829 39.8285 224.607 39.8285 224.84 39.8285C225.462 39.8285 226.084 39.9288 226.55 40.3301C226.783 40.5308 227.172 41.1327 227.172 42.0356C227.172 42.9385 226.861 43.8414 226.006 44.8447C226.783 46.1489 227.405 47.2524 227.949 47.9547C228.494 48.657 228.882 48.7573 229.116 48.8576C229.271 48.8576 229.427 48.8576 229.504 48.8576C229.582 48.8576 229.582 48.8576 229.582 48.9579C229.582 49.0583 229.504 49.0583 229.349 49.0583H228.727C228.183 49.0583 227.949 48.9579 227.716 48.8576C227.328 48.5566 226.939 47.9547 226.472 47.0518C226.084 46.3495 225.617 45.5469 225.462 45.246C225.462 45.246 225.384 45.1456 225.306 45.1456H224.14C224.062 45.1456 224.062 45.1456 224.062 45.246V45.5469C224.062 46.7508 224.062 47.6537 224.14 48.1554C224.14 48.5566 224.218 48.7573 224.529 48.8576C224.684 48.8576 224.84 48.8576 224.918 48.8576C224.995 48.8576 224.995 48.8576 224.995 48.9579C224.995 49.0583 224.918 49.0583 224.84 49.0583C224.296 49.0583 223.751 49.0583 223.674 49.0583C223.674 49.0583 223.052 49.0583 222.819 49.0583C222.741 49.0583 222.663 49.0583 222.663 48.9579C222.663 48.9579 222.663 48.8576 222.741 48.8576C222.819 48.8576 222.974 48.8576 223.052 48.8576C223.207 48.8576 223.285 48.5566 223.363 48.1554C223.441 47.6537 223.441 46.6505 223.441 45.5469V43.3398H223.285ZM224.062 44.3431C224.062 44.4434 224.062 44.4434 224.14 44.4434C224.296 44.5437 224.684 44.644 225.151 44.644C225.384 44.644 225.617 44.644 225.85 44.4434C226.161 44.1424 226.395 43.5405 226.395 42.5372C226.395 41.0324 225.773 40.1295 224.762 40.1295C224.451 40.1295 224.218 40.1295 224.14 40.2298C224.062 40.2298 224.062 40.3301 224.062 40.3301V44.3431Z" fill="#231F20"/>
<path d="M229.971 43.3398C229.971 41.4337 229.971 41.1327 229.971 40.7314C229.971 40.3301 229.893 40.1295 229.582 40.0291C229.504 40.0291 229.349 40.0291 229.271 40.0291C229.271 40.0291 229.193 40.0291 229.193 39.9288C229.193 39.8285 229.271 39.8285 229.349 39.8285C229.582 39.8285 229.815 39.8285 230.048 39.8285H230.437C230.515 39.8285 232.381 39.8285 232.614 39.8285C232.769 39.8285 232.925 39.8285 233.003 39.7282C233.08 39.7282 233.08 39.6278 233.158 39.6278C233.158 39.6278 233.158 39.6278 233.158 39.7282C233.158 39.8285 233.08 39.9288 233.08 40.3301C233.08 40.4304 233.08 41.0324 233.003 41.1327C233.003 41.233 233.003 41.233 232.925 41.233C232.847 41.233 232.847 41.1327 232.847 41.0324C232.847 40.932 232.847 40.7314 232.769 40.6311C232.692 40.4304 232.614 40.3301 232.07 40.2298C231.914 40.2298 230.904 40.2298 230.748 40.2298C230.748 40.2298 230.67 40.2298 230.67 40.3301V43.7411C230.67 43.8414 230.67 43.8414 230.748 43.8414C230.904 43.8414 232.07 43.8414 232.225 43.8414C232.458 43.8414 232.614 43.8414 232.692 43.6408C232.769 43.5405 232.769 43.4401 232.847 43.4401C232.847 43.4401 232.925 43.4401 232.925 43.5405C232.925 43.6408 232.847 43.8414 232.847 44.2427C232.847 44.4434 232.847 44.945 232.847 45.0453C232.847 45.1456 232.847 45.246 232.769 45.246C232.692 45.246 232.692 45.246 232.692 45.1456C232.692 45.0453 232.692 44.945 232.692 44.7443C232.692 44.5437 232.536 44.343 232.225 44.343C231.992 44.343 231.059 44.2427 230.904 44.2427C230.826 44.2427 230.826 44.2427 230.826 44.343V45.4466C230.826 45.8479 230.826 47.2524 230.826 47.5534C230.826 48.356 230.981 48.5566 231.914 48.5566C232.147 48.5566 232.614 48.5566 232.847 48.4563C233.08 48.356 233.236 48.055 233.236 47.5534C233.236 47.4531 233.236 47.3528 233.314 47.3528C233.391 47.3528 233.391 47.4531 233.391 47.5534C233.391 47.6537 233.314 48.4563 233.236 48.7573C233.158 49.0583 233.08 49.0583 232.692 49.0583C231.992 49.0583 231.448 49.0583 231.059 49.0583C230.67 49.0583 230.437 49.0583 230.282 49.0583C230.282 49.0583 230.126 49.0583 229.893 49.0583C229.737 49.0583 229.504 49.0583 229.349 49.0583C229.271 49.0583 229.193 49.0583 229.193 48.9579C229.193 48.9579 229.193 48.8576 229.271 48.8576C229.349 48.8576 229.504 48.8576 229.582 48.8576C229.737 48.8576 229.815 48.5566 229.893 48.1553C229.971 47.6537 229.971 46.6505 229.971 45.5469V43.3398Z" fill="#231F20"/>
<path d="M239.766 45.8479C239.766 44.8446 239.688 44.7443 239.377 44.5437C239.299 44.5437 239.144 44.5437 239.066 44.5437C239.066 44.5437 238.989 44.5437 238.989 44.4434C238.989 44.343 239.066 44.343 239.144 44.343C239.533 44.343 240.155 44.343 240.232 44.343C240.31 44.343 240.854 44.343 241.165 44.343C241.243 44.343 241.321 44.343 241.321 44.4434C241.321 44.4434 241.321 44.5437 241.243 44.5437C241.165 44.5437 241.088 44.5437 241.01 44.5437C240.777 44.644 240.699 44.8446 240.621 45.2459C240.621 45.6472 240.621 46.0485 240.621 46.5502V47.9547C240.621 48.4563 240.621 48.5566 240.466 48.6569C239.844 49.0582 238.989 49.1586 238.444 49.1586C237.745 49.1586 236.345 49.0582 235.335 47.8544C234.791 47.2524 234.246 45.9482 234.246 44.343C234.246 42.4369 235.024 41.0323 235.801 40.3301C236.656 39.6278 237.589 39.5275 238.289 39.5275C238.911 39.5275 239.533 39.7281 239.766 39.7281C239.999 39.8285 240.31 39.8285 240.543 39.8285C240.621 39.8285 240.621 39.9288 240.621 39.9288C240.621 40.1294 240.543 40.4304 240.543 41.6343C240.543 41.8349 240.543 41.9353 240.466 41.9353C240.388 41.9353 240.388 41.8349 240.388 41.7346C240.388 41.534 240.31 41.233 240.155 40.932C239.921 40.4304 239.144 39.9288 237.9 39.9288C237.278 39.9288 236.579 40.0291 235.879 40.7314C235.335 41.3333 234.946 42.4369 234.946 43.8414C234.946 45.5469 235.646 46.8511 235.957 47.2524C236.734 48.1553 237.589 48.5566 238.444 48.5566C238.755 48.5566 239.299 48.4563 239.533 48.2556C239.688 48.1553 239.688 48.055 239.688 47.8544V45.8479H239.766Z" fill="#231F20"/>
<path d="M243.731 45.4466C243.731 46.6505 243.731 47.5534 243.808 48.055C243.808 48.4563 243.886 48.657 244.197 48.7573C244.353 48.7573 244.508 48.7573 244.586 48.7573C244.664 48.7573 244.664 48.7573 244.664 48.8576C244.664 48.9579 244.586 48.9579 244.508 48.9579C243.964 48.9579 243.42 48.9579 243.342 48.9579C243.264 48.9579 242.72 48.9579 242.409 48.9579C242.331 48.9579 242.254 48.9579 242.254 48.8576C242.254 48.8576 242.254 48.7573 242.331 48.7573C242.409 48.7573 242.565 48.7573 242.642 48.7573C242.798 48.7573 242.876 48.4563 242.953 48.055C243.031 47.5534 243.031 46.5502 243.031 45.4466V43.3398C243.031 41.4337 243.031 41.1327 243.031 40.7314C243.031 40.3301 242.953 40.1295 242.72 40.0291C242.642 40.0291 242.487 40.0291 242.409 40.0291C242.409 40.0291 242.331 40.0291 242.331 39.9288C242.331 39.8285 242.409 39.8285 242.487 39.8285C242.798 39.8285 243.42 39.8285 243.42 39.8285C243.497 39.8285 244.042 39.8285 244.353 39.8285C244.43 39.8285 244.508 39.8285 244.508 39.9288C244.508 39.9288 244.508 40.0291 244.43 40.0291C244.353 40.0291 244.275 40.0291 244.197 40.0291C243.964 40.1295 243.886 40.3301 243.886 40.7314C243.886 41.1327 243.886 41.4337 243.886 43.3398V45.4466H243.731Z" fill="#231F20"/>
<path d="M248.006 40.0291C248.084 39.6278 248.162 39.5275 248.24 39.5275C248.317 39.5275 248.317 39.6278 248.473 39.9288C248.628 40.4304 250.105 45.4466 250.65 47.2524C250.961 48.356 251.271 48.5566 251.427 48.6569C251.582 48.7573 251.738 48.7573 251.816 48.7573C251.893 48.7573 251.893 48.7573 251.893 48.8576C251.893 48.9579 251.816 48.9579 251.738 48.9579C251.582 48.9579 250.883 48.9579 250.261 48.9579C250.105 48.9579 249.95 48.9579 249.95 48.8576C249.95 48.8576 249.95 48.7573 250.028 48.7573C250.105 48.7573 250.105 48.6569 250.105 48.4563L249.25 45.4466C249.25 45.4466 249.25 45.3463 249.172 45.3463H247.151C247.074 45.3463 247.074 45.3463 247.074 45.4466L246.529 47.6537C246.452 47.9547 246.374 48.2557 246.374 48.4563C246.374 48.6569 246.607 48.8576 246.763 48.8576H246.84C246.918 48.8576 246.918 48.8576 246.918 48.9579C246.918 49.0582 246.84 49.0582 246.763 49.0582C246.529 49.0582 246.141 49.0582 246.063 49.0582C245.985 49.0582 245.441 49.0582 244.975 49.0582C244.819 49.0582 244.819 49.0582 244.819 48.9579C244.819 48.9579 244.819 48.8576 244.897 48.8576C244.975 48.8576 245.13 48.8576 245.208 48.8576C245.674 48.7573 245.83 48.356 245.985 47.754L248.006 40.0291ZM248.24 38.5243C248.084 38.4239 247.851 38.2233 247.618 38.2233C247.307 38.2233 247.074 38.5243 247.074 38.6246C246.996 38.7249 246.996 38.7249 246.918 38.7249C246.918 38.7249 246.84 38.7249 246.84 38.6246C246.84 38.5243 246.84 38.5243 246.918 38.4239C247.074 38.123 247.462 37.521 247.695 37.521C247.929 37.521 248.162 37.7217 248.473 37.9223C248.628 38.0226 248.862 38.123 249.017 38.123C249.328 38.123 249.561 37.822 249.561 37.7217C249.561 37.6213 249.639 37.6213 249.639 37.6213C249.639 37.6213 249.717 37.6213 249.717 37.7217C249.717 37.7217 249.717 37.822 249.717 37.9223C249.639 38.123 249.25 38.7249 248.939 38.7249C248.628 38.8252 248.317 38.6246 248.24 38.5243ZM249.017 44.945L248.162 41.534C248.084 41.3333 248.084 41.3333 248.006 41.534L247.151 44.8447C247.151 44.945 247.151 44.945 247.151 44.945H249.017Z" fill="#231F20"/>
<path d="M255.469 39.6278C257.568 39.6278 259.201 41.3333 259.201 44.2427C259.201 46.9515 257.724 49.2589 255.392 49.2589C252.826 49.2589 251.738 46.6505 251.738 44.4434C251.738 42.3366 252.826 39.6278 255.469 39.6278ZM255.625 48.657C256.48 48.657 258.268 48.055 258.268 44.4434C258.268 41.534 256.869 39.9288 255.392 39.9288C253.837 39.9288 252.593 41.233 252.593 43.9418C252.593 46.8511 253.992 48.657 255.625 48.657Z" fill="#231F20"/>
<path d="M22.3429 27.0583V20.5281H24.5494C25.0617 20.5281 25.4805 20.6205 25.8057 20.8055C26.1331 20.9883 26.3754 21.2359 26.5327 21.5484C26.69 21.8609 26.7687 22.2095 26.7687 22.5943C26.7687 22.979 26.69 23.3287 26.5327 23.6433C26.3775 23.9579 26.1373 24.2087 25.8121 24.3958C25.4869 24.5807 25.0702 24.6732 24.5622 24.6732H22.9807V23.9717H24.5367C24.8874 23.9717 25.1691 23.9111 25.3817 23.79C25.5942 23.6688 25.7483 23.5051 25.844 23.2989C25.9418 23.0906 25.9907 22.8557 25.9907 22.5943C25.9907 22.3328 25.9418 22.099 25.844 21.8928C25.7483 21.6866 25.5932 21.525 25.3785 21.4081C25.1638 21.2891 24.8789 21.2296 24.5239 21.2296H23.1337V27.0583H22.3429ZM33.5524 23.7932C33.5524 24.4819 33.428 25.0771 33.1793 25.5788C32.9306 26.0804 32.5894 26.4673 32.1558 26.7394C31.7221 27.0115 31.2268 27.1475 30.6699 27.1475C30.113 27.1475 29.6177 27.0115 29.184 26.7394C28.7504 26.4673 28.4092 26.0804 28.1605 25.5788C27.9118 25.0771 27.7874 24.4819 27.7874 23.7932C27.7874 23.1044 27.9118 22.5092 28.1605 22.0076C28.4092 21.5059 28.7504 21.119 29.184 20.8469C29.6177 20.5748 30.113 20.4388 30.6699 20.4388C31.2268 20.4388 31.7221 20.5748 32.1558 20.8469C32.5894 21.119 32.9306 21.5059 33.1793 22.0076C33.428 22.5092 33.5524 23.1044 33.5524 23.7932ZM32.7871 23.7932C32.7871 23.2277 32.6925 22.7505 32.5033 22.3615C32.3163 21.9725 32.0622 21.6781 31.7412 21.4783C31.4224 21.2785 31.0653 21.1785 30.6699 21.1785C30.2745 21.1785 29.9163 21.2785 29.5953 21.4783C29.2765 21.6781 29.0225 21.9725 28.8333 22.3615C28.6462 22.7505 28.5527 23.2277 28.5527 23.7932C28.5527 24.3586 28.6462 24.8358 28.8333 25.2248C29.0225 25.6138 29.2765 25.9082 29.5953 26.1081C29.9163 26.3079 30.2745 26.4078 30.6699 26.4078C31.0653 26.4078 31.4224 26.3079 31.7412 26.1081C32.0622 25.9082 32.3163 25.6138 32.5033 25.2248C32.6925 24.8358 32.7871 24.3586 32.7871 23.7932ZM34.882 27.0583V20.5281H37.0885C37.5986 20.5281 38.0174 20.6152 38.3448 20.7895C38.6721 20.9617 38.9145 21.1987 39.0718 21.5006C39.2291 21.8024 39.3077 22.1457 39.3077 22.5305C39.3077 22.9152 39.2291 23.2564 39.0718 23.554C38.9145 23.8516 38.6732 24.0855 38.348 24.2555C38.0227 24.4234 37.6071 24.5074 37.1012 24.5074H35.3156V23.7932H37.0757C37.4243 23.7932 37.7049 23.7421 37.9175 23.6401C38.1322 23.5381 38.2874 23.3935 38.383 23.2065C38.4808 23.0173 38.5297 22.792 38.5297 22.5305C38.5297 22.269 38.4808 22.0405 38.383 21.845C38.2852 21.6494 38.129 21.4985 37.9143 21.3922C37.6996 21.2838 37.4158 21.2296 37.063 21.2296H35.6727V27.0583H34.882ZM37.9558 24.1248L39.5628 27.0583H38.6445L37.063 24.1248H37.9558ZM40.2683 21.2296V20.5281H45.1659V21.2296H43.1125V27.0583H42.3217V21.2296H40.2683ZM45.8913 27.0583H45.0623L47.4601 20.5281H48.2763L50.6742 27.0583H49.8451L47.8937 21.5612H47.8427L45.8913 27.0583ZM46.1974 24.5074H49.539V25.2089H46.1974V24.5074ZM51.6913 27.0583V20.5281H52.4821V26.3568H55.5176V27.0583H51.6913ZM61.2825 27.0583H59.2673V20.5281H61.3718C62.0052 20.5281 62.5473 20.6588 62.998 20.9203C63.4486 21.1796 63.794 21.5527 64.0342 22.0395C64.2744 22.5241 64.3945 23.1044 64.3945 23.7804C64.3945 24.4606 64.2734 25.0463 64.0311 25.5373C63.7887 26.0262 63.4359 26.4025 62.9724 26.6661C62.509 26.9275 61.9457 27.0583 61.2825 27.0583ZM60.0581 26.3568H61.2315C61.7714 26.3568 62.2189 26.2526 62.5739 26.0443C62.9289 25.836 63.1935 25.5394 63.3678 25.1547C63.5421 24.7699 63.6293 24.3118 63.6293 23.7804C63.6293 23.2532 63.5432 22.7994 63.371 22.4189C63.1988 22.0363 62.9416 21.7429 62.5994 21.5389C62.2571 21.3327 61.8309 21.2296 61.3208 21.2296H60.0581V26.3568ZM65.6819 27.0583H64.8529L67.2507 20.5281H68.067L70.4648 27.0583H69.6358L67.6844 21.5612H67.6333L65.6819 27.0583ZM65.988 24.5074H69.3297V25.2089H65.988V24.5074Z" fill="#7C7B7B"/>
<path d="M7.41483 32.4276H8.10176V36.4827C8.10176 36.8447 8.03528 37.1521 7.90233 37.4051C7.76937 37.6581 7.58194 37.8501 7.34004 37.9812C7.09814 38.1123 6.81284 38.1779 6.48415 38.1779C6.17392 38.1779 5.89785 38.1216 5.65595 38.0089C5.41405 37.8944 5.22385 37.7319 5.08535 37.5214C4.94686 37.3109 4.87761 37.0607 4.87761 36.7708H5.55346C5.55346 36.9314 5.59317 37.0718 5.67257 37.1918C5.75382 37.31 5.86461 37.4023 6.00496 37.4688C6.1453 37.5353 6.30503 37.5685 6.48415 37.5685C6.68173 37.5685 6.84977 37.527 6.98827 37.4439C7.12676 37.3608 7.23202 37.2389 7.30403 37.0783C7.3779 36.9158 7.41483 36.7172 7.41483 36.4827V32.4276ZM13.2011 32.4276H13.8881V36.1836C13.8881 36.5714 13.7966 36.9176 13.6138 37.2223C13.4329 37.5251 13.1771 37.7643 12.8466 37.9397C12.516 38.1133 12.1283 38.2001 11.6832 38.2001C11.2382 38.2001 10.8504 38.1133 10.5199 37.9397C10.1893 37.7643 9.93265 37.5251 9.74984 37.2223C9.56888 36.9176 9.47839 36.5714 9.47839 36.1836V32.4276H10.1653V36.1282C10.1653 36.4052 10.2263 36.6517 10.3481 36.8677C10.47 37.0819 10.6436 37.2509 10.8689 37.3746C11.096 37.4965 11.3675 37.5574 11.6832 37.5574C11.999 37.5574 12.2704 37.4965 12.4976 37.3746C12.7247 37.2509 12.8983 37.0819 13.0183 36.8677C13.1402 36.6517 13.2011 36.4052 13.2011 36.1282V32.4276ZM18.3621 33.8458C18.3289 33.5651 18.1941 33.3472 17.9577 33.1921C17.7213 33.037 17.4314 32.9594 17.088 32.9594C16.8368 32.9594 16.6171 33.0001 16.4287 33.0813C16.2422 33.1626 16.0963 33.2743 15.9911 33.4165C15.8877 33.5587 15.836 33.7202 15.836 33.9012C15.836 34.0526 15.872 34.1828 15.944 34.2917C16.0179 34.3989 16.112 34.4884 16.2265 34.5604C16.341 34.6306 16.461 34.6888 16.5866 34.7349C16.7122 34.7792 16.8276 34.8153 16.9328 34.843L17.509 34.9981C17.6567 35.0368 17.8211 35.0904 18.002 35.1587C18.1848 35.227 18.3593 35.3203 18.5255 35.4385C18.6936 35.5548 18.8321 35.7044 18.941 35.8872C19.05 36.07 19.1044 36.2944 19.1044 36.5603C19.1044 36.8668 19.0241 37.1438 18.8635 37.3913C18.7047 37.6387 18.472 37.8354 18.1654 37.9812C17.8608 38.1271 17.4905 38.2001 17.0547 38.2001C16.6485 38.2001 16.2967 38.1345 15.9994 38.0034C15.7039 37.8723 15.4713 37.6895 15.3014 37.455C15.1333 37.2204 15.0382 36.9481 15.0161 36.6378H15.7252C15.7436 36.852 15.8157 37.0293 15.9412 37.1697C16.0686 37.3082 16.2293 37.4116 16.4232 37.4799C16.6189 37.5464 16.8294 37.5796 17.0547 37.5796C17.3169 37.5796 17.5524 37.5371 17.761 37.4522C17.9697 37.3654 18.135 37.2454 18.2569 37.0921C18.3787 36.937 18.4397 36.756 18.4397 36.5492C18.4397 36.3609 18.387 36.2076 18.2818 36.0894C18.1765 35.9712 18.038 35.8752 17.8663 35.8013C17.6946 35.7275 17.509 35.6628 17.3096 35.6074L16.6115 35.408C16.1684 35.2806 15.8175 35.0987 15.559 34.8623C15.3005 34.626 15.1712 34.3167 15.1712 33.9344C15.1712 33.6168 15.2571 33.3398 15.4288 33.1035C15.6024 32.8653 15.8351 32.6806 16.1268 32.5495C16.4204 32.4165 16.7482 32.3501 17.1101 32.3501C17.4757 32.3501 17.8007 32.4156 18.0851 32.5467C18.3695 32.676 18.5948 32.8533 18.761 33.0785C18.929 33.3038 19.0177 33.5596 19.0269 33.8458H18.3621ZM19.9236 33.037V32.4276H24.1782V33.037H22.3944V38.1003H21.7074V33.037H19.9236ZM25.9253 32.4276V38.1003H25.2384V32.4276H25.9253ZM31.8674 34.2003H31.1805C31.1398 34.0028 31.0687 33.8292 30.9672 33.6796C30.8675 33.53 30.7456 33.4045 30.6015 33.3029C30.4594 33.1995 30.3015 33.1219 30.1279 33.0702C29.9543 33.0185 29.7734 32.9927 29.585 32.9927C29.2415 32.9927 28.9304 33.0795 28.6515 33.253C28.3746 33.4266 28.1539 33.6824 27.9895 34.0203C27.827 34.3582 27.7458 34.7728 27.7458 35.264C27.7458 35.7552 27.827 36.1697 27.9895 36.5077C28.1539 36.8456 28.3746 37.1013 28.6515 37.2749C28.9304 37.4485 29.2415 37.5353 29.585 37.5353C29.7734 37.5353 29.9543 37.5094 30.1279 37.4577C30.3015 37.406 30.4594 37.3294 30.6015 37.2278C30.7456 37.1244 30.8675 36.9979 30.9672 36.8484C31.0687 36.6969 31.1398 36.5234 31.1805 36.3276H31.8674C31.8157 36.6175 31.7215 36.877 31.5849 37.106C31.4482 37.3349 31.2783 37.5297 31.0752 37.6904C30.8721 37.8492 30.644 37.9702 30.391 38.0533C30.1399 38.1364 29.8712 38.1779 29.585 38.1779C29.1012 38.1779 28.6709 38.0597 28.2942 37.8234C27.9175 37.587 27.6211 37.2509 27.4051 36.8151C27.189 36.3793 27.081 35.8623 27.081 35.264C27.081 34.6657 27.189 34.1486 27.4051 33.7128C27.6211 33.277 27.9175 32.941 28.2942 32.7046C28.6709 32.4682 29.1012 32.3501 29.585 32.3501C29.8712 32.3501 30.1399 32.3916 30.391 32.4747C30.644 32.5578 30.8721 32.6797 31.0752 32.8403C31.2783 32.9991 31.4482 33.193 31.5849 33.422C31.7215 33.6491 31.8157 33.9086 31.8674 34.2003ZM29.2969 38.1225H29.8398L29.7955 38.3441C29.9395 38.3663 30.0716 38.4263 30.1916 38.5241C30.3116 38.6239 30.3716 38.7817 30.3716 38.9978C30.3716 39.236 30.2729 39.4299 30.0753 39.5795C29.8795 39.7309 29.5905 39.8066 29.2083 39.8066L29.1861 39.3745C29.3579 39.3745 29.5001 39.3468 29.6127 39.2914C29.7272 39.2378 29.7844 39.1474 29.7844 39.0199C29.7844 38.8925 29.7373 38.8057 29.6432 38.7596C29.549 38.7134 29.3966 38.682 29.1861 38.6654L29.2969 38.1225ZM33.2101 38.1003H32.4899L34.5729 32.4276H35.282L37.3649 38.1003H36.6447L34.9496 33.3251H34.9053L33.2101 38.1003ZM33.476 35.8844H36.3788V36.4938H33.476V35.8844ZM40.4423 38.1003V32.4276H43.8437V33.037H41.1292V34.9538H43.5889V35.5631H41.1292V38.1003H40.4423ZM45.0202 38.1003V32.4276H48.4438V33.037H45.7071V34.9538H48.2665V35.5631H45.7071V37.491H48.4881V38.1003H45.0202ZM51.4325 38.1003H49.6819V32.4276H51.51C52.0603 32.4276 52.5312 32.5412 52.9227 32.7683C53.3142 32.9936 53.6142 33.3177 53.8229 33.7405C54.0316 34.1616 54.1359 34.6657 54.1359 35.2529C54.1359 35.8438 54.0306 36.3525 53.8201 36.7791C53.6096 37.2038 53.3031 37.5307 52.9005 37.7596C52.498 37.9868 52.0086 38.1003 51.4325 38.1003ZM50.3688 37.491H51.3882C51.8572 37.491 52.2459 37.4005 52.5543 37.2195C52.8627 37.0386 53.0926 36.781 53.244 36.4467C53.3954 36.1125 53.4711 35.7145 53.4711 35.2529C53.4711 34.7949 53.3963 34.4007 53.2468 34.0702C53.0972 33.7378 52.8737 33.4829 52.5764 33.3057C52.2791 33.1265 51.9089 33.037 51.4657 33.037H50.3688V37.491ZM55.2882 38.1003V32.4276H58.7117V33.037H55.9751V34.9538H58.5345V35.5631H55.9751V37.491H58.7561V38.1003H55.2882ZM59.9499 38.1003V32.4276H61.8666C62.3098 32.4276 62.6736 32.5033 62.958 32.6547C63.2424 32.8043 63.4529 33.0102 63.5895 33.2724C63.7262 33.5346 63.7945 33.8329 63.7945 34.1671C63.7945 34.5013 63.7262 34.7977 63.5895 35.0562C63.4529 35.3148 63.2433 35.5179 62.9607 35.6656C62.6782 35.8115 62.3172 35.8844 61.8777 35.8844H60.3266V35.264H61.8556C62.1584 35.264 62.4022 35.2197 62.5868 35.131C62.7733 35.0424 62.9081 34.9168 62.9912 34.7543C63.0762 34.59 63.1186 34.3942 63.1186 34.1671C63.1186 33.94 63.0762 33.7415 62.9912 33.5716C62.9063 33.4017 62.7705 33.2706 62.584 33.1783C62.3975 33.0841 62.151 33.037 61.8445 33.037H60.6368V38.1003H59.9499ZM62.62 35.552L64.0161 38.1003H63.2183L61.8445 35.552H62.62ZM65.1718 38.1003H64.4516L66.5346 32.4276H67.2437L69.3266 38.1003H68.6065L66.9113 33.3251H66.867L65.1718 38.1003ZM65.4377 35.8844H68.3406V36.4938H65.4377V35.8844ZM70.2102 38.1003V32.4276H70.8972V37.491H73.5341V38.1003H70.2102Z" fill="#231F20"/>
<path d="M16.4748 50.1327H14.4596V43.6025H16.5641C17.1976 43.6025 17.7396 43.7332 18.1903 43.9947C18.6409 44.254 18.9863 44.6271 19.2266 45.1139C19.4668 45.5986 19.5869 46.1789 19.5869 46.8548C19.5869 47.5351 19.4657 48.1207 19.2234 48.6117C18.981 49.1007 18.6282 49.4769 18.1648 49.7405C17.7014 50.002 17.138 50.1327 16.4748 50.1327ZM15.2504 49.4312H16.4238C16.9637 49.4312 17.4112 49.327 17.7662 49.1187C18.1212 48.9104 18.3858 48.6139 18.5601 48.2291C18.7345 47.8444 18.8216 47.3863 18.8216 46.8548C18.8216 46.3277 18.7355 45.8738 18.5633 45.4933C18.3911 45.1107 18.1339 44.8174 17.7917 44.6133C17.4495 44.4071 17.0233 44.304 16.5131 44.304H15.2504V49.4312ZM20.8742 50.1327H20.0452L22.443 43.6025H23.2593L25.6571 50.1327H24.8281L22.8767 44.6356H22.8256L20.8742 50.1327ZM21.1803 47.5818H24.522V48.2833H21.1803V47.5818ZM31.1255 50.222C30.7514 50.222 30.4144 50.1476 30.1147 49.9988C29.815 49.85 29.5748 49.6459 29.3941 49.3866C29.2134 49.1272 29.1146 48.8318 29.0976 48.5001H29.8628C29.8926 48.7956 30.0265 49.0401 30.2646 49.2335C30.5048 49.4248 30.7917 49.5205 31.1255 49.5205C31.3933 49.5205 31.6314 49.4578 31.8397 49.3324C32.0502 49.2069 32.2149 49.0348 32.3339 48.8158C32.4551 48.5947 32.5157 48.345 32.5157 48.0665C32.5157 47.7817 32.453 47.5276 32.3276 47.3044C32.2043 47.0791 32.0342 46.9016 31.8174 46.7719C31.6006 46.6423 31.3529 46.5764 31.0745 46.5743C30.8746 46.5721 30.6695 46.6029 30.4591 46.6667C30.2486 46.7284 30.0754 46.8081 29.9393 46.9059L29.1996 46.8166L29.595 43.6025H32.9876V44.304H30.2582L30.0286 46.2299H30.0669C30.2008 46.1236 30.3687 46.0354 30.5707 45.9652C30.7726 45.8951 30.9831 45.86 31.202 45.86C31.6016 45.86 31.9577 45.9557 32.2702 46.147C32.5848 46.3362 32.8314 46.5955 33.0099 46.925C33.1906 47.2545 33.281 47.6307 33.281 48.0537C33.281 48.4704 33.1874 48.8424 33.0004 49.1697C32.8154 49.495 32.5603 49.7522 32.2351 49.9414C31.9099 50.1284 31.54 50.222 31.1255 50.222ZM36.4225 46.3574V44.8652C36.4225 44.6802 36.38 44.541 36.2949 44.4475C36.212 44.3518 36.0845 44.304 35.9123 44.304C35.721 44.304 35.5711 44.3412 35.4627 44.4156C35.3543 44.49 35.3001 44.5973 35.3001 44.7376L34.5476 44.6739C34.5476 44.3805 34.6709 44.1371 34.9175 43.9437C35.1662 43.7502 35.4978 43.6535 35.9123 43.6535C36.2949 43.6535 36.6032 43.7556 36.837 43.9596C37.0708 44.1616 37.1877 44.4634 37.1877 44.8652V46.2426C37.1877 46.3829 37.1952 46.5179 37.2101 46.6476C37.2271 46.7773 37.2579 46.9059 37.3025 47.0334H36.5245C36.4926 46.9314 36.4671 46.8219 36.448 46.705C36.431 46.5881 36.4225 46.4722 36.4225 46.3574ZM36.6138 45.082V45.5922H35.9761C35.721 45.5922 35.5361 45.6411 35.4213 45.7388C35.3065 45.8366 35.2491 45.9493 35.2491 46.0768C35.2491 46.198 35.2895 46.2926 35.3703 46.3606C35.451 46.4265 35.5807 46.4595 35.7593 46.4595C35.8783 46.4595 35.9984 46.4329 36.1196 46.3797C36.2429 46.3266 36.3449 46.2618 36.4257 46.1852C36.5086 46.1087 36.55 46.0343 36.55 45.962L36.6266 46.4722C36.5628 46.6125 36.4448 46.7517 36.2726 46.8899C36.1026 47.0281 35.8677 47.0972 35.568 47.0972C35.2172 47.0972 34.9462 47.0068 34.7549 46.8261C34.5657 46.6433 34.4711 46.4021 34.4711 46.1023C34.4711 45.7771 34.5954 45.5263 34.8441 45.3498C35.095 45.1713 35.4723 45.082 35.9761 45.082H36.6138ZM41.2213 50.1327V43.6025H43.4278C43.9379 43.6025 44.3567 43.6897 44.6841 43.864C45.0114 44.0362 45.2538 44.2732 45.4111 44.575C45.5684 44.8769 45.647 45.2202 45.647 45.6049C45.647 45.9897 45.5684 46.3309 45.4111 46.6285C45.2538 46.9261 45.0125 47.1599 44.6872 47.3299C44.362 47.4979 43.9464 47.5818 43.4405 47.5818H41.6549V46.8676H43.415C43.7636 46.8676 44.0442 46.8166 44.2568 46.7145C44.4715 46.6125 44.6267 46.468 44.7223 46.2809C44.8201 46.0917 44.869 45.8664 44.869 45.6049C44.869 45.3435 44.8201 45.115 44.7223 44.9194C44.6245 44.7238 44.4683 44.5729 44.2536 44.4666C44.0389 44.3582 43.7551 44.304 43.4023 44.304H42.012V50.1327H41.2213ZM44.2951 47.1992L45.9021 50.1327H44.9838L43.4023 47.1992H44.2951ZM46.9647 50.1327V43.6025H50.9057V44.304H47.7554V46.5105H50.7017V47.212H47.7554V49.4312H50.9568V50.1327H46.9647ZM56.795 45.6432C56.7249 45.4285 56.6324 45.2361 56.5176 45.0661C56.405 44.8939 56.27 44.7472 56.1127 44.626C55.9575 44.5049 55.7811 44.4124 55.5834 44.3486C55.3857 44.2849 55.1689 44.253 54.9329 44.253C54.546 44.253 54.1942 44.3529 53.8775 44.5527C53.5608 44.7525 53.3089 45.0469 53.1218 45.4359C52.9347 45.8249 52.8412 46.3022 52.8412 46.8676C52.8412 47.433 52.9358 47.9103 53.125 48.2993C53.3142 48.6883 53.5703 48.9827 53.8934 49.1825C54.2165 49.3823 54.58 49.4822 54.9839 49.4822C55.358 49.4822 55.6875 49.4025 55.9724 49.2431C56.2593 49.0815 56.4825 48.8541 56.642 48.5607C56.8035 48.2653 56.8843 47.9177 56.8843 47.5181L57.1266 47.5691H55.1625V46.8676H57.6496V47.5691C57.6496 48.1069 57.5348 48.5745 57.3052 48.9721C57.0777 49.3696 56.7631 49.6778 56.3614 49.8967C55.9617 50.1136 55.5026 50.222 54.9839 50.222C54.4057 50.222 53.8977 50.0859 53.4598 49.8138C53.024 49.5417 52.6839 49.1549 52.4394 48.6532C52.1971 48.1515 52.076 47.5563 52.076 46.8676C52.076 46.3511 52.145 45.8866 52.2832 45.4742C52.4235 45.0597 52.6212 44.7068 52.8763 44.4156C53.1314 44.1244 53.4332 43.9012 53.7818 43.746C54.1304 43.5908 54.5141 43.5132 54.9329 43.5132C55.2773 43.5132 55.5983 43.5653 55.8959 43.6695C56.1956 43.7715 56.4624 43.9171 56.6962 44.1063C56.9321 44.2934 57.1288 44.5176 57.2861 44.7791C57.4434 45.0384 57.5518 45.3265 57.6113 45.6432H56.795ZM59.7947 43.6025V50.1327H59.0039V43.6025H59.7947ZM61.648 50.1327H60.819L63.2168 43.6025H64.0331L66.4309 50.1327H65.6018L63.6504 44.6356H63.5994L61.648 50.1327ZM61.9541 47.5818H65.2957V48.2833H61.9541V47.5818ZM62.6429 42.952L62.0562 42.9265C62.0562 42.6013 62.1486 42.3356 62.3336 42.1294C62.5206 41.9211 62.7513 41.8169 63.0255 41.8169C63.1466 41.8169 63.254 41.8382 63.3475 41.8807C63.4411 41.9211 63.5303 41.9678 63.6154 42.021C63.7004 42.0741 63.7876 42.122 63.8768 42.1645C63.9682 42.2049 64.0713 42.225 64.1861 42.225C64.3073 42.225 64.4093 42.1783 64.4922 42.0848C64.5773 41.9891 64.6198 41.8743 64.6198 41.7404L65.1937 41.7914C65.1937 42.123 65.1002 42.3866 64.9131 42.5822C64.7282 42.7777 64.4986 42.8755 64.2244 42.8755C64.0777 42.8755 63.9565 42.8553 63.8609 42.8149C63.7652 42.7724 63.6802 42.7246 63.6058 42.6714C63.5314 42.6183 63.4528 42.5715 63.3698 42.5312C63.2869 42.4886 63.1849 42.4674 63.0637 42.4674C62.9426 42.4674 62.8416 42.5152 62.7608 42.6109C62.6822 42.7044 62.6429 42.8181 62.6429 42.952ZM72.651 46.8676C72.651 47.5563 72.5266 48.1515 72.2779 48.6532C72.0292 49.1549 71.688 49.5417 71.2544 49.8138C70.8207 50.0859 70.3254 50.222 69.7685 50.222C69.2116 50.222 68.7163 50.0859 68.2826 49.8138C67.849 49.5417 67.5078 49.1549 67.2591 48.6532C67.0104 48.1515 66.886 47.5563 66.886 46.8676C66.886 46.1789 67.0104 45.5837 67.2591 45.082C67.5078 44.5803 67.849 44.1935 68.2826 43.9214C68.7163 43.6493 69.2116 43.5132 69.7685 43.5132C70.3254 43.5132 70.8207 43.6493 71.2544 43.9214C71.688 44.1935 72.0292 44.5803 72.2779 45.082C72.5266 45.5837 72.651 46.1789 72.651 46.8676ZM71.8857 46.8676C71.8857 46.3022 71.7911 45.8249 71.6019 45.4359C71.4149 45.0469 71.1608 44.7525 70.8399 44.5527C70.521 44.3529 70.1639 44.253 69.7685 44.253C69.3731 44.253 69.0149 44.3529 68.694 44.5527C68.3751 44.7525 68.1211 45.0469 67.9319 45.4359C67.7448 45.8249 67.6513 46.3022 67.6513 46.8676C67.6513 47.433 67.7448 47.9103 67.9319 48.2993C68.1211 48.6883 68.3751 48.9827 68.694 49.1825C69.0149 49.3823 69.3731 49.4822 69.7685 49.4822C70.1639 49.4822 70.521 49.3823 70.8399 49.1825C71.1608 48.9827 71.4149 48.6883 71.6019 48.2993C71.7911 47.9103 71.8857 47.433 71.8857 46.8676Z" fill="#7C7B7B"/>
<path d="M80 16V56.3301" stroke="#7C7B7B" stroke-miterlimit="10"/>
<defs>
<linearGradient id="paint0_linear_4_19" x1="101.541" y1="28.9144" x2="126.688" y2="41.8371" gradientUnits="userSpaceOnUse">
<stop stop-color="#009800"/>
<stop offset="0.4" stop-color="#7FCB72"/>
<stop offset="1" stop-color="white"/>
</linearGradient>
<linearGradient id="paint1_linear_4_19" x1="114.262" y1="-0.840304" x2="103.035" y2="23.7877" gradientUnits="userSpaceOnUse">
<stop stop-color="#999999"/>
<stop offset="0.28" stop-color="#C5C5C5"/>
<stop offset="1" stop-color="#F2F2F2"/>
</linearGradient>
<linearGradient id="paint2_linear_4_19" x1="100.315" y1="34.9124" x2="76.8198" y2="17.9046" gradientUnits="userSpaceOnUse">
<stop stop-color="#0018E4"/>
<stop offset="0.46" stop-color="#7E8BF1"/>
<stop offset="1" stop-color="white"/>
</linearGradient>
<linearGradient id="paint3_linear_4_19" x1="94.8983" y1="35.5999" x2="83.6713" y2="60.2277" gradientUnits="userSpaceOnUse">
<stop stop-color="#999999"/>
<stop offset="0.28" stop-color="#C5C5C5"/>
<stop offset="1" stop-color="#F2F2F2"/>
</linearGradient>
</defs>
</svg>
